<svg viewBox="0 0 330 200" xmlns="http://www.w3.org/2000/svg"><g><g><g><g><g><line x1="40" y1="177" x2="35" y2="177" style="visibility: inherit;" fill="rgb(0, 0, 0)" stroke="rgb(204, 204, 204)" stroke-width="1px"></line><line x1="40" y1="154.875" x2="35" y2="154.875" style="visibility: inherit;" fill="rgb(0, 0, 0)" stroke="rgb(204, 204, 204)" stroke-width="1px"></line><line x1="40" y1="132.75" x2="35" y2="132.75" style="visibility: inherit;" fill="rgb(0, 0, 0)" stroke="rgb(204, 204, 204)" stroke-width="1px"></line><line x1="40" y1="110.625" x2="35" y2="110.625" style="visibility: inherit;" fill="rgb(0, 0, 0)" stroke="rgb(204, 204, 204)" stroke-width="1px"></line><line x1="40" y1="88.5" x2="35" y2="88.5" style="visibility: inherit;" fill="rgb(0, 0, 0)" stroke="rgb(204, 204, 204)" stroke-width="1px"></line><line x1="40" y1="66.375" x2="35" y2="66.375" style="visibility: inherit;" fill="rgb(0, 0, 0)" stroke="rgb(204, 204, 204)" stroke-width="1px"></line><line x1="40" y1="44.25" x2="35" y2="44.25" style="visibility: inherit;" fill="rgb(0, 0, 0)" stroke="rgb(204, 204, 204)" stroke-width="1px"></line><line x1="40" y1="22.125" x2="35" y2="22.125" style="visibility: inherit;" fill="rgb(0, 0, 0)" stroke="rgb(204, 204, 204)" stroke-width="1px"></line><line x1="40" y1="0" x2="35" y2="0" style="visibility: inherit;" fill="rgb(0, 0, 0)" stroke="rgb(204, 204, 204)" stroke-width="1px"></line></g><g transform="translate(30, 0)"><text x="0" y="177" dx="0em" dy="0.3em" style="text-anchor: end; visibility: hidden; font-family: Roboto, sans-serif; font-size: 12px; font-weight: 200;" fill="rgb(33, 33, 33)" stroke="none" stroke-width="1px">1.5</text><text x="0" y="154.875" dx="0em" dy="0.3em" style="text-anchor: end; visibility: inherit; font-family: Roboto, sans-serif; font-size: 12px; font-weight: 200;" fill="rgb(33, 33, 33)" stroke="none" stroke-width="1px">2</text><text x="0" y="132.75" dx="0em" dy="0.3em" style="text-anchor: end; visibility: hidden; font-family: Roboto, sans-serif; font-size: 12px; font-weight: 200;" fill="rgb(33, 33, 33)" stroke="none" stroke-width="1px">2.5</text><text x="0" y="110.625" dx="0em" dy="0.3em" style="text-anchor: end; visibility: inherit; font-family: Roboto, sans-serif; font-size: 12px; font-weight: 200;" fill="rgb(33, 33, 33)" stroke="none" stroke-width="1px">3</text><text x="0" y="88.5" dx="0em" dy="0.3em" style="text-anchor: end; visibility: hidden; font-family: Roboto, sans-serif; font-size: 12px; font-weight: 200;" fill="rgb(33, 33, 33)" stroke="none" stroke-width="1px">3.5</text><text x="0" y="66.375" dx="0em" dy="0.3em" style="text-anchor: end; visibility: inherit; font-family: Roboto, sans-serif; font-size: 12px; font-weight: 200;" fill="rgb(33, 33, 33)" stroke="none" stroke-width="1px">4</text><text x="0" y="44.25" dx="0em" dy="0.3em" style="text-anchor: end; visibility: hidden; font-family: Roboto, sans-serif; font-size: 12px; font-weight: 200;" fill="rgb(33, 33, 33)" stroke="none" stroke-width="1px">4.5</text><text x="0" y="22.125" dx="0em" dy="0.3em" style="text-anchor: end; visibility: inherit; font-family: Roboto, sans-serif; font-size: 12px; font-weight: 200;" fill="rgb(33, 33, 33)" stroke="none" stroke-width="1px">5</text><text x="0" y="0" dx="0em" dy="0.3em" style="text-anchor: end; visibility: hidden; font-family: Roboto, sans-serif; font-size: 12px; font-weight: 200;" fill="rgb(33, 33, 33)" stroke="none" stroke-width="1px">5.5</text></g><line x1="40" y1="0" x2="40" y2="177" fill="rgb(0, 0, 0)" stroke="rgb(204, 204, 204)" stroke-width="1px"></line></g></g><g transform="translate(40, 0)" clip-path="url(#clip_0)"><clipPath id="clip_0"><rect width="290" height="177"></rect></clipPath><g><g><g><line x1="0" y1="0" x2="0" y2="177" fill="rgb(0, 0, 0)" stroke="rgb(66, 66, 66)" stroke-width="1px" opacity="0.25"></line><line x1="32.22222222222222" y1="0" x2="32.22222222222222" y2="177" fill="rgb(0, 0, 0)" stroke="rgb(66, 66, 66)" stroke-width="1px" opacity="0.25"></line><line x1="64.44444444444444" y1="0" x2="64.44444444444444" y2="177" fill="rgb(0, 0, 0)" stroke="rgb(66, 66, 66)" stroke-width="1px" opacity="0.25"></line><line x1="96.66666666666666" y1="0" x2="96.66666666666666" y2="177" fill="rgb(0, 0, 0)" stroke="rgb(66, 66, 66)" stroke-width="1px" opacity="0.25"></line><line x1="128.88888888888889" y1="0" x2="128.88888888888889" y2="177" fill="rgb(0, 0, 0)" stroke="rgb(66, 66, 66)" stroke-width="1px" opacity="0.25"></line><line x1="161.11111111111111" y1="0" x2="161.11111111111111" y2="177" fill="rgb(0, 0, 0)" stroke="rgb(66, 66, 66)" stroke-width="1px" opacity="0.25"></line><line x1="193.33333333333331" y1="0" x2="193.33333333333331" y2="177" fill="rgb(0, 0, 0)" stroke="rgb(66, 66, 66)" stroke-width="1px" opacity="0.25"></line><line x1="225.55555555555557" y1="0" x2="225.55555555555557" y2="177" fill="rgb(0, 0, 0)" stroke="rgb(66, 66, 66)" stroke-width="1px" opacity="0.25"></line><line x1="257.77777777777777" y1="0" x2="257.77777777777777" y2="177" fill="rgb(0, 0, 0)" stroke="rgb(66, 66, 66)" stroke-width="1px" opacity="0.25"></line><line x1="290" y1="0" x2="290" y2="177" fill="rgb(0, 0, 0)" stroke="rgb(66, 66, 66)" stroke-width="1px" opacity="0.25"></line></g><g><line x1="0" y1="177" x2="290" y2="177" fill="rgb(0, 0, 0)" stroke="rgb(66, 66, 66)" stroke-width="1px" opacity="0.25"></line><line x1="0" y1="154.875" x2="290" y2="154.875" fill="rgb(0, 0, 0)" stroke="rgb(66, 66, 66)" stroke-width="1px" opacity="0.25"></line><line x1="0" y1="132.75" x2="290" y2="132.75" fill="rgb(0, 0, 0)" stroke="rgb(66, 66, 66)" stroke-width="1px" opacity="0.25"></line><line x1="0" y1="110.625" x2="290" y2="110.625" fill="rgb(0, 0, 0)" stroke="rgb(66, 66, 66)" stroke-width="1px" opacity="0.25"></line><line x1="0" y1="88.5" x2="290" y2="88.5" fill="rgb(0, 0, 0)" stroke="rgb(66, 66, 66)" stroke-width="1px" opacity="0.25"></line><line x1="0" y1="66.375" x2="290" y2="66.375" fill="rgb(0, 0, 0)" stroke="rgb(66, 66, 66)" stroke-width="1px" opacity="0.25"></line><line x1="0" y1="44.25" x2="290" y2="44.25" fill="rgb(0, 0, 0)" stroke="rgb(66, 66, 66)" stroke-width="1px" opacity="0.25"></line><line x1="0" y1="22.125" x2="290" y2="22.125" fill="rgb(0, 0, 0)" stroke="rgb(66, 66, 66)" stroke-width="1px" opacity="0.25"></line><line x1="0" y1="0" x2="290" y2="0" fill="rgb(0, 0, 0)" stroke="rgb(66, 66, 66)" stroke-width="1px" opacity="0.25"></line></g></g></g><g><g><line x1="0" y1="243.375" x2="290" y2="243.375" fill="rgb(0, 0, 0)" stroke="rgb(153, 153, 153)" stroke-width="1.5px"></line></g></g><g><g><line x1="32.22222222222222" y1="0" x2="32.22222222222222" y2="177" fill="rgb(0, 0, 0)" stroke="rgb(153, 153, 153)" stroke-width="1.5px"></line></g></g><g><g><g><g><g><path stroke="rgb(0, 153, 136)" stroke-width="2px" d="M43.12448222222223,-9.119374177442245L43.29358444444444,4.492154019648593L43.33070444444444,10.506646961607583L43.39257111111111,3.639643383859252L43.42969111111111,8.598722765947851L43.64003777777778,11.347201437614476L43.71015333333334,19.558706243782574L44.48554888888889,19.594331908199514L44.939237777777784,17.337493328891533L45.025851111111116,2.0105526373863953L45.02997555555556,9.214912457990332L45.19495333333333,0.8802870056267302L45.49191333333333,8.261439701452009L45.5909,18.44583514965599L45.689886666666666,11.106046650609038L46.06521111111111,26.01270616879718L46.26318444444444,10.624232130217296L46.659131111111115,15.684748123272103L46.76636666666667,13.140003174651968L46.93134444444444,3.5033963978920153L47.071575555555555,18.166539648811074L47.13756666666667,19.594087302470363L47.29429555555556,27.604290497174752L47.35203777777778,22.220576484126234L47.36441111111111,27.81509554333841L47.53351333333334,28.83775384394738L47.822224444444444,24.680097098162236L48.094437777777785,15.434341332322619L48.370775555555554,22.517948282364777L48.81621555555555,30.190801270367995L49.168146666666665,30.04572022411961L49.21764,41.380285909496216L49.465106666666664,41.081569391919615L49.51047555555556,33.925010608693015L49.65483111111111,41.55258346024755L50.03015555555555,28.51675143494366L50.071400000000004,44.375435201252486L50.94165777777778,55.31311338420209L51.04476888888889,55.16969157025514L51.39534666666667,52.15593982199014L51.56444888888888,50.48057685172068L52.150119999999994,56.49645787403288L52.16661777777778,58.250516116173884L52.356342222222224,52.933742344112304L53.21422666666667,50.467046677906005L53.38745333333333,46.0801099418632L53.40395111111111,52.409322373809346L53.61429777777778,49.1625072197568L53.66791555555555,50.18651128032514L53.771026666666664,41.55221572052664L53.92363111111111,46.79548224527377L54.05973777777778,38.81041765641413L54.33607555555555,53.0698408152535L54.505177777777774,59.049981109254034L54.71552444444444,61.1543523740485L55.59403111111111,51.54267064760416L56.27456444444445,49.79078903216295L56.41479555555556,51.46613182078702L56.46841333333334,67.85397027403654L56.78599555555556,62.372387829247366L56.88910666666667,68.03216968943075L56.95509777777778,62.76275703292723L57.18606666666667,72.41306474793932L57.422513333333335,74.15115467899432L57.53387333333333,64.74307232018349L57.55037111111111,68.1034896905186L57.8927,64.93359821647181L58.11542,56.611358747540564L58.33401555555556,69.41837953666368L58.342264444444446,72.54906320059014L58.441251111111114,69.62352504422492L58.44537555555556,72.78601478392022L58.48662,75.07293104442441L59.23726888888889,73.47431273050596L59.31150888888889,73.04350373022254L59.3775,74.60006945653257L59.39812222222223,58.30102883174121L59.43524222222222,60.615559020007254L59.975544444444445,72.64400398633754L60.058033333333334,69.64837524832411L60.27250444444444,71.935814652092L60.47047777777778,75.49823500707551L60.75506444444444,91.99766865965609L61.05202444444444,73.88323898075154L61.072646666666664,70.77917801712827L61.311864444444446,69.90010478123949L61.942904444444444,76.70919686570721L62.13262888888889,85.59606424579L62.88740222222222,79.97237071757897L63.00288666666666,76.54137860158313L63.01938444444445,84.6616050387575L63.32871777777778,80.40574359805309L63.58030888888889,85.76410188621834L63.745286666666665,84.55777138678165L64.08761555555556,87.76436272983513L64.09998888888889,88.81304972007729L64.20722444444445,85.03713815590655L64.36395333333334,74.3908013414199L64.47531333333333,68.0071179813656L64.61554444444444,80.32712237516121L65.15584666666666,85.73550985145019L65.71677111111111,89.36098879508643L66.41103111111111,90.41335712631027L67.47101333333333,80.64292051052736L67.49576,91.60031405482107L67.75972444444444,92.5828544342125L67.92882666666667,87.8028267409566L68.07318222222223,93.32991005099792L68.19691555555555,89.27892766664611L68.3124,92.95879289072865L68.41138666666666,87.72270081378288L68.41963555555556,86.74420944414895L68.60523555555555,85.71500117517925L68.64648,87.9253590043629L68.79908444444445,91.56888184167414L68.82795555555556,89.86546402703206L69.57448,94.25231684166481L69.83432,91.57469523500379L69.96217777777778,93.10715053409918L70.37462222222223,80.30859030443779L70.53547555555556,78.87032397483797L70.68395555555556,71.93462796148664L70.81593777777778,88.12228714905386L71.55421333333334,94.18972763706569L71.59133333333334,104.91823273473575L72.10276444444445,97.91838873370645L72.27186666666667,95.32733960714434L72.44096888888889,95.25611920217571L72.44509333333333,94.21419436371265L72.78742222222222,100.63559335849249L72.91115555555557,108.56528202522733L73.02251555555556,100.54823801415526L73.11737777777778,98.65477622447827L73.24523555555555,98.96946223317633L73.24936,86.55461816632182L73.34834666666667,92.11758995439666L73.37309333333333,94.5401543878678L73.43083555555555,96.3766968311765L73.71954666666667,88.05829232107986L73.83090666666666,96.01206768257255L73.95876444444444,93.19612820567389L74.02888,101.41988436950265L74.24470444444444,97.63250651701105L74.31482,93.32020348753818L74.34369111111111,100.12313472298555L74.86749555555555,99.96965882222517L74.8798688888889,99.90534094000259L75.08609111111112,108.23250419512031L75.29231333333334,103.66086892255925L75.34593111111111,102.2506973741578L75.52328222222222,97.80324311245246L75.59339777777778,102.95597459786393L75.77074888888889,91.72080160327708L76.10895333333333,99.05852509229156L76.11720222222222,101.74881463461382L76.37291777777779,87.57847569711961L76.44303333333333,100.16381691889738L77.67624222222221,86.89163696167931L77.72986,90.16207272647657L77.80409999999999,86.09576458238863L77.96907777777777,87.1906464487511L78.06806444444445,84.74018049181687L78.09281111111112,98.89694395030251L78.45576222222222,99.75871089914268L78.48050888888889,98.92043082606094L78.94657111111111,109.27489567215024L79.20641111111111,107.70920362719762L79.26827777777778,111.801769153171L79.40850888888889,105.47510713094069L80.82319333333334,109.28343926521298L80.9593,96.80824863107297L81.07478444444445,94.8561144542175L81.15727333333334,96.79534761139615L81.81718444444445,89.65400292890588L82.01928222222223,83.77288915167641L82.42760222222222,85.3682062712335L82.44409999999999,100.80947127860924L82.67229777777777,103.6378348047861L82.94863555555555,105.69871474357416L83.00637777777777,112.09019451768381L83.16310666666666,107.88590644258967L83.34458222222221,110.5673050311727L83.3528311111111,102.3745490686609L83.50543555555556,96.47179322102747L83.66628888888889,95.10915816223073L83.98799555555556,104.8740680002895L84.18184444444444,112.85049618385595L84.62316,115.26238711537339L85.41917777777779,110.45462455666909L85.43567555555556,109.19656099269896L85.59652888888888,106.64791103237933L85.71201333333335,101.04434893151561L85.72851111111112,96.8751602984693L87.08132888888889,95.75168256862321L87.26692888888888,102.23832638802145L87.42778222222223,114.648020742786L87.55151555555555,118.64733502772575L87.70411999999999,113.60416150991395L87.98045777777777,117.66765704693957L88.09594222222222,117.85513080920316L88.39702666666666,116.84986132243597L88.47539111111111,115.91131864702298L88.49601333333334,110.27938427159543L89.13530222222222,115.30440081137037L89.32915111111112,121.3661474047757L89.83233333333334,122.47238009325606L89.86945333333333,106.22732916564908L89.97668888888889,92.28149952346782L90.14166666666667,103.80068794402301L90.68196888888889,103.2618175715972L90.72733777777778,99.26711296860987L90.80157777777778,109.40094394579302L91.01327777777777,108.26772820409995L91.04214888888889,110.85709869537867L91.40922444444445,109.3814973573334L91.43809555555556,111.12907181623262L91.61957111111111,106.89357039000203L91.67731333333333,101.68247249523169L92.15574888888888,97.7519695925675L92.5187,98.03662141370548L92.60943777777779,100.48242349748477L93.02188222222222,105.2583579261581L93.32709111111112,116.70293493506193L93.45907333333332,120.44147298000384L93.51269111111111,102.90857933319883L93.76428222222222,105.29420412991809L94.15198000000001,116.1191921080015L94.34170444444445,116.03874012499223L94.36232666666666,119.48298623960714L94.52730444444444,113.05055002451839L94.58504666666667,105.59652695704042L94.64278888888889,115.62364574461304L94.70465555555556,106.01146450155449L94.83663777777777,110.77778736658973L94.89438,107.41205100958398L95.45118,107.86487606015713L95.60378444444444,104.25669495372122L95.80175777777778,111.67646451060858L95.95436222222223,119.29809305229716L96.09459333333334,116.80832832550367L96.58952666666667,114.19627264437294L96.70501111111112,114.33256818829308L97.20819333333333,114.1089941142698L97.3443,111.48577872983815L97.45566000000001,113.90808393998267L98.33004222222222,110.52524408366276L98.51151777777777,114.02020273605581L98.68062,113.87228513955829L98.96108222222222,119.40586925268028L98.96520666666667,117.65917747449788L99.19205111111111,106.5458842589373L99.48624000000001,108.58238976442306L99.81207111111111,114.92664109017545L99.95642666666667,119.2530969759589L101.21025777777778,121.05056593303476L101.63507555555555,112.41768864086029L101.76705777777778,120.55353343064046L101.8248,121.40310880884203L101.83717333333334,127.38848431911869L101.93616,114.65582919124846L102.10113777777778,121.05398583414603L102.81466666666665,112.15530216695338L102.83941333333334,128.63093397618215L102.84353777777778,132.39329122067022L103.40446222222222,118.29341110325174L103.94476444444444,122.91105835876654L104.0973688888889,117.89933849121208L104.64179555555555,120.22293734994574L104.92638222222222,123.26009803084757L105.15735111111111,121.55879676978722L105.1944711111111,113.77342200661262L105.33470222222222,111.78888688316678L105.95336888888889,108.79917603630267L106.4648,110.05466884314085L106.94323555555555,111.95878204070964L106.97623111111112,126.18923182704114L106.99272888888889,117.13328888069428L107.00922666666666,117.78288697034618L108.11180666666667,120.48562845486701L108.37164666666666,125.06154118119656L108.42526444444445,118.28396364533293L108.46238444444445,120.85739004900091L108.59436666666666,131.5628825443389L109.57186,127.61431624993097L109.59660666666666,127.98706814351326L109.65847333333333,132.21251991213944L109.72034000000001,121.84903852237217L110.16990444444446,123.84301517065138L110.52873111111111,127.98380683455329L111.01541555555555,124.43135661240497L111.03191333333334,117.02586711857364L111.42786000000001,107.98281441577463L111.71244666666668,115.11561519174687L111.88154888888889,112.08364924352713L112.12076666666667,113.62849614954798L112.24037555555554,109.25668944082742L112.29811777777778,123.15554352499296L112.61982444444443,122.59338452754766L112.63219777777778,113.16798778974025L112.81779777777777,113.67513583065872L113.11063333333333,111.1035097239125L113.26323777777779,107.57184644923855L114.03450888888888,114.60101320973783L114.11699777777778,132.50507806916087L114.25722888888887,144.91966173159508L114.32322,136.29259205524582L114.3685888888889,125.80841045775686L114.63255333333333,118.38849209069416L114.68617111111112,113.91358422231201L115.97022666666666,122.37449733609868L116.18057333333334,125.03179009076902L116.31255555555555,137.12567858288853L116.34967555555555,132.83888221019606L116.42804,124.22470543524086L116.50228,114.53001621806897L116.72087555555555,119.27910892632173L117.07145333333332,126.5458419350777L117.08382666666667,125.5343759553429L117.2364311111111,121.38156641106583L117.35191555555556,124.38118408072458L117.42615555555555,133.78292926519197L117.43440444444444,121.6688883803432L117.82210222222221,120.21750972879796L118.15618222222223,124.85913239844363L118.60987111111112,119.8713096793158L118.67998666666666,130.1058539876737L118.72535555555557,139.947418613994L118.81196888888888,141.62032995448342L118.96044888888889,137.06876426831383L119.02644000000001,132.16798914608657L119.34402222222222,132.0222249337274L119.77296444444444,135.51176406790245L119.91319555555556,106.16331568866627L120.09467111111111,114.88908528989349L120.42050222222223,127.1445992929089L121.21239555555556,134.43215151681588L121.25776444444445,124.76249368223003L121.27838666666666,121.07168244858056L121.37324888888888,128.62025370323343L121.60009333333333,136.72977434470465L121.60834222222222,127.81108524128324L122.16101777777777,133.65441585614997L123.19625333333333,131.79149952551555L123.29523999999999,124.64941701305408L123.53858222222222,135.13104191429912L123.60457333333333,118.82831763629615L124.20261777777777,124.44271859767736L124.49268222222223,124.82809987808884L124.50093111111111,130.62357911554346L124.65353555555555,122.69986286811455L125.82900222222223,125.01727919013753L126.05172222222222,123.74987878937397L126.15483333333333,136.6531182440452L126.73225555555555,119.44173180534438L127.35092222222222,119.02825355216261L127.44578444444444,111.44387955477474L127.49527777777779,105.94468156701707L128.41915333333333,115.32379956368437L128.7326111111111,127.67977063252827L128.73673555555555,123.79910304781377L129.1203088888889,126.74993778846608L129.48738444444444,125.54877170075147L129.49563333333333,114.01695375531416L129.71835333333334,112.21185117298067L129.73072666666667,129.70216898521005L131.47124222222223,127.10659063100944L132.7388,140.21565227651675L133.11412444444443,136.67728760805178L133.13062222222223,130.7187576232341L133.20898666666668,132.56814450848023L133.67917333333335,136.66139885680627L134.08336888888888,144.6852100425765L134.14111111111112,125.25235136352808L134.3060888888889,130.95173962117929L134.5948,136.81114115239203L134.65666666666667,131.197704445845L134.7886488888889,136.63026831837067L134.81752,139.30681241924506L135.0484888888889,129.9936769805845L135.13922666666667,137.22400085940936L135.26708444444444,131.50916772374498L135.52280000000002,123.81340845399491L135.76614222222224,134.36830263121956L136.3311911111111,125.18308499326726L136.94573333333335,128.4615998439218L137.1354577777778,137.66785541607294L137.9809688888889,131.8708653177819L138.2036888888889,134.95632532393938L138.24493333333334,137.76480905506614L138.25318222222222,140.00575885947706L138.4264088888889,137.51381741628742L138.66150222222223,136.28284198442518L139.08632,126.53542403220784L139.13581333333335,120.47050368690282L139.82872,126.20311081352108L139.86584,116.3922186609642L140.05968888888887,121.68047780493119L140.51337777777778,119.96298319518098L140.62473777777777,121.35042912018018L140.67835555555556,130.34719587714505L140.98356444444443,125.2744138321342L141.1622688888889,126.25426140314708L141.6943222222222,131.26716994575483L142.0902688888889,138.1827951868285L142.2841177777778,142.8752854704803L142.53158444444443,125.39311521291407L142.7873,132.57784312391087L142.79142444444443,136.08194499864462L143.4265888888889,145.70766066106725L143.60806444444444,145.16842073555333L143.6699311111111,133.8743307730886L143.97926444444445,139.1255139196713L144.0576288888889,129.42116110830304L144.12774444444443,126.92909856622694L144.82065111111112,122.8353441714363L145.06399333333331,135.9181600427101L145.37332666666666,129.9979986676854L145.3857,133.47185365732207L145.42282,139.02897229418573L145.69915777777777,134.67236174717794L145.76514888888892,131.3084576462224L146.13222444444443,127.0175306996414L146.23533555555554,136.706759130997L146.81688222222223,148.02412879231127L146.9529888888889,149.6273832307014L146.98598444444445,138.6678446522804L147.23757555555557,135.57076764055802L147.69951333333333,132.50339183776802L147.86036666666666,132.87764810066955L148.09546,144.49991826141795L149.17194,127.89445354893756L149.53624444444443,129.09699741813512L149.56924,125.79949703105075L149.79608444444446,130.26113964490762L150.20852888888888,146.31406149490277L150.94680444444444,141.91987458004715L151.1942711111111,137.02198206862306L151.30975555555554,128.50271951842603L151.68095555555556,136.4533553820151L151.7304488888889,138.61732017405618L152.31612,134.35030495767467L152.8646711111111,138.8004842498581L153.0750177777778,147.92942509047273L153.46271555555555,145.287425047112L153.57407555555557,138.40367474910764L153.8174177777778,132.7801322386095L154.12675111111113,137.52376345666818L154.35359555555556,127.79133648796422L154.41958666666667,124.9210911936971L154.5639422222222,138.55996191188171L154.5886888888889,141.2555004339485L155.03000444444444,138.31740417367627L155.05887555555557,125.50192545823103L155.12899111111113,127.26318768842127L155.22385333333332,119.2830323945469L155.29396888888888,116.8441717249743L155.40120444444446,128.14398090974043L155.8136488888889,133.40989182553022L155.91676,135.4530139336665L156.1477288888889,125.18536393461702L156.19722222222222,134.22083168398188L156.25084,134.3107261727503L156.74577333333335,128.79405284346646L156.9767422222222,133.0821157003731L156.99324,126.69271383913102L157.1582177777778,125.35951658625449L157.29432444444444,131.93863818966773L157.36031555555556,138.05488342001098L158.76398,138.81449557515415L158.8175977777778,132.37378514511843L159.0155711111111,146.01457382859863L159.59711777777778,152.02737562431142L159.70847777777777,145.8134903941944L159.87345555555558,135.00372698512047L159.90645111111112,131.46104237202624L160.06730444444443,135.7339693830241L161.04892222222222,136.14339419161254L161.33763333333334,137.3235236165224L161.5933488888889,132.43452335341564L161.73358000000002,142.54560732211942L161.97692222222224,140.31361240962906L162.54609555555558,121.15862685930587L162.63683333333333,130.73707233960542L162.76469111111112,140.01629969534346L162.9131711111111,131.3751169506137L162.92966888888887,126.98470580955889L162.96266444444444,133.32445986497729L163.22250444444444,134.31745724337298L163.76280666666668,135.00095589433312L163.82879777777777,131.23234746142745L163.88654,136.02695701887916L163.97315333333333,145.0556643150491L164.06801555555555,133.21050783051507L164.14225555555555,133.67124021085178L164.22474444444444,140.41446340103195L164.8805311111111,138.19343941223173L165.02488666666667,137.8536454010698L165.2146111111111,127.32831520847637L166.25532444444445,131.60379478342628L166.31306666666666,139.40361526612816L166.51104,128.68162309530007L166.7048888888889,127.3314411127724L167.24106666666665,141.5207625796889L167.50915555555557,137.9547447067794L167.51328,133.27689149989465L167.56277333333333,139.66580674060452L167.5668977777778,138.1133020699517L167.88448,135.003278778821L168.14844444444444,132.98089659621104L168.3381688888889,131.2376915956127L169.05169777777778,122.81269488004368L169.43939555555556,132.34611974518015L169.9714488888889,127.23602413153955L170.0456888888889,131.3110699594993L170.10755555555554,134.05779432898632L171.17991111111112,128.1315502860896L171.21290666666667,143.53614326350404L171.60060444444446,139.51726381798096L171.83157333333332,135.1680574465961L171.85219555555557,133.35900178248707L171.86044444444445,140.60622061905278L171.94293333333334,137.67756021986614L172.49973333333332,141.476419192375L172.78019555555554,145.9495061766036L172.85443555555557,142.75275915449427L173.22563555555556,141.1767426585291L173.55146666666664,141.9253650340518L173.57208888888889,141.4284124751735L173.91441777777777,146.8561979281812L174.32686222222222,135.06590014385634L174.37223111111112,142.06441708616885L174.47121777777778,121.72357232697291L174.97987777777777,121.23446836070706L175.46656222222222,127.97265480754666L176.02748666666668,136.60245465515789L176.15946888888888,134.85367955731593L176.25020666666666,135.21523941735768L176.27907777777776,141.33766837823597L176.31619777777777,136.13543012087467L176.32444666666666,138.4232607504423L176.33269555555555,139.0824611318526L176.3986866666667,147.81552036597833L176.72451777777778,149.46962704655232L177.00498,142.516654171924L177.11221555555557,131.92831745051157L177.2483222222222,129.65108436526546L177.4297977777778,137.87099679816774L178.08970888888888,144.77767207925922L178.44853555555557,145.1693846386993L178.50215333333335,140.7678209306195L178.70425111111112,140.04698673256604L178.80736222222222,150.74989741664155L178.92284666666666,142.7711273766817L179.15381555555555,131.75301384551892L179.4384022222222,136.80956289543846L179.6858688888889,133.45651315077626L180.03644666666668,131.07896045699408L180.13955777777778,148.59290888222867L180.30041111111112,151.93921606727133L180.44476666666668,149.31627283685023L180.69223333333332,139.16128770227797L181.2449088888889,141.70754515955193L181.42638444444444,126.32394332784023L181.73984222222222,128.33918585239414L182.72558444444445,132.5708156458054L183.11463555555554,127.05322270581209L183.18062666666665,130.24520683878114L183.25899111111113,151.82541911955744L183.48583555555555,148.60122767183822L183.51883111111113,147.06167609151387L183.6673111111111,141.21449457798113L184.21998666666667,143.13650571819372L184.31072444444445,150.36211101720468L184.31897333333333,154.23299892252527L184.3313466666667,147.88106293383743L184.38084,147.17195388617222L184.4385822222222,145.04207752312485L184.52107111111113,138.69339751103678L184.76441333333335,137.31395243942234L185.049,142.30582108103928L185.10674222222224,133.3377826571685L185.2593466666667,138.54995829821956L185.53156,148.29017369128067L185.6222977777778,137.09722833738803L186.29458222222223,129.5366322332983L186.83488444444444,135.9791930755594L186.94624444444446,141.73226357940547L186.95449333333332,136.31666458513567L187.14834222222223,133.49848037282365L187.30094666666665,138.66415160488927L187.44942666666668,138.76850434298422L187.56078666666664,131.10145237538282L187.87012,137.29146310384908L188.09284,144.53959824261568L188.1134622222222,128.1543794728369L188.64551555555553,120.97974378210606L188.8269911111111,128.3829549213785L189.63125777777776,142.31146571997036L190.4973911111111,139.07021547534006L190.50151555555556,137.5914513658162L190.55925777777776,133.73201956693387L190.5881288888889,138.8484670540336L190.91396,140.14845539454478L191.04181777777777,143.41811436011707L191.2274177777778,135.7369869565625L192.22276222222223,139.67241895292156L192.36299333333332,141.74823675211638L192.53209555555554,139.46332288775665L192.60633555555555,146.0598715483774L192.65170444444445,152.14740078089412L193.13013999999998,154.17667081616983L193.86841555555557,155.14153870739142L194.00452222222222,156.13090383289813L194.0086466666667,147.44679758118724L194.88715333333334,141.72519791821918L194.99438888888886,145.67594540536572L195.2995977777778,146.36655607473952L195.45220222222224,154.46878900916636L195.50582,149.55113391155757L195.89351777777776,145.86274404570315L195.96363333333332,148.10021163967164L196.00487777777778,141.71102830139944L196.37195333333332,135.97120526056378L196.94112666666666,137.7832396186643L197.16384666666667,147.71022671206316L197.27520666666666,147.6001098259897L197.35769555555555,141.34732103971308L197.60516222222222,135.41978588478366L197.8691266666667,132.8659304545915L197.8732511111111,141.42437575856422L197.95161555555555,132.6225725328897L198.12484222222224,129.81374480223505L198.17846,140.44552725491434L198.32694,141.05139251910157L198.4960422222222,137.6244912884385L198.5207888888889,148.79306914459173L198.6692688888889,142.42573043138088L198.86724222222225,139.75232560891092L199.30443333333332,144.71158229981768L199.37867333333332,144.03652903839892L199.5972688888889,138.1581793630418L199.69625555555558,142.25929553534368L200.41938666666667,149.09001228347884L200.4523822222222,151.69223608455343L200.65035555555554,152.39813026119043L200.79058666666666,156.1238279123829L200.94731555555555,163.9725524651841L201.03392888888888,150.37534871505713L201.45049777777777,133.3951739240111L201.5618577777778,134.74390648415212L201.57423111111112,135.75893053180292L201.5907288888889,143.74026244143437L201.81757333333334,143.2992890194642L201.82169777777779,138.70202609989568L202.35787555555555,145.46659517939997L202.47336,149.26931713018485L202.8156888888889,146.92161325212518L203.22400888888887,131.5164116120112L203.43435555555556,144.68727261398865L203.48384888888887,143.7879352961459L203.50447111111112,152.2360064741658L203.60758222222222,149.04531703929229L203.63645333333332,147.71022619330955L203.69832,139.36076589539093L203.70656888888888,138.9161813504365L203.78905777777777,133.39880699198645L203.97053333333335,136.00229855943442L204.02827555555558,146.1826348338647L204.4572177777778,147.04022984708092L205.03464,151.53552542331659L205.23261333333335,136.5245032918623L205.2656088888889,129.2325851090056L205.44708444444444,132.8386103372158L205.60793777777778,134.35263951184638L205.61206222222222,134.6418213579791L205.88427555555555,137.95565427146778L205.92552,139.3289805698539L205.93789333333334,141.34161358166608L206.90301333333335,137.67473290615604L207.1711022222222,133.71041292103126L207.29896,133.28084467740055L207.6041688888889,135.96312059695242L208.27780666666666,131.75857995590397L208.36854444444444,148.98329836512107L208.56239333333335,140.1836766623527L208.8841,135.89835716623486L208.92122,137.93019076191436L208.97896222222224,144.95246984960468L209.0532022222222,151.86181316615242L209.10682,159.43275602961242L209.31716666666668,149.94545500460063L209.40790444444445,153.4087823807168L210.08843777777776,148.1698890315871L210.4720111111111,133.23794563933498L210.48438444444443,134.45937371447258L210.74009999999998,134.19975199815377L211.07005555555554,144.4523902566239L211.59798444444445,141.22399496024875L211.8042066666667,138.68953112951533L211.95268666666666,137.08045208568345L212.0393,133.111675000876L212.72395777777777,130.5875656704246L213.14877555555557,131.78928766847486L213.28075777777778,146.2757069957306L214.38610888888888,149.0009935791522L214.69544222222223,149.40542104811846L214.81092666666666,149.87491566521751L215.08314000000001,147.41207481970088L215.14088222222222,137.20810519188464L215.34710444444443,137.57381400185716L215.55332666666666,143.97806315849954L215.59044666666665,137.4502025439187L215.62756666666667,139.49470443688895L215.63994,140.54556624390523L215.7966688888889,135.43070163904332L216.21736222222222,144.1885475789231L216.57341777777776,144.47670562712682L216.62703555555555,140.89623174457748L216.65178222222224,140.41112042301296L216.65590666666668,143.47072377701642L216.77964,137.46396226227307L217.00235999999998,134.0600012930633L217.66639555555557,131.5989787335635L217.82312444444446,144.00644751521594L217.9509822222222,141.09238956053642L218.0334711111111,148.59248398351426L218.78412,147.87789680127952L219.35329333333334,139.47644213178546L219.52652,148.160266133182L219.95133777777775,151.809714300652L220.12044,146.28080133391597L220.16580888888888,164.704390548427L220.26479555555554,156.84811893866006L220.31428888888888,155.00463719228233L220.88758666666666,157.64765464698868L221.0773111111111,155.857749220345L221.73722222222221,150.69130468166685L221.78671555555556,136.63859066842087L221.8939511111111,142.99949854301266L223.01992444444443,138.29157053045543L223.70870666666664,138.09691735870902L223.91905333333332,141.5576041982607L223.96854666666664,147.04793594157908L224.40573777777777,133.72727650330194L224.86490444444445,146.8984193439825L225.49182,145.64639930936957L225.5578111111111,139.08721020825664L225.63617555555555,139.12734176521278L225.64030000000002,137.34635411384568L226.06099333333333,139.71019856144704L226.08161555555554,144.89204416280816L226.14348222222222,143.9555049991955L226.15585555555558,149.0070436034411L226.20122444444445,147.22552986346543L226.27134,150.2691299641303L226.28783777777778,146.78979361797403L226.35382888888887,155.12806127515452L226.41569555555557,143.99586023120295L226.47343777777778,140.78872912662155L226.63841555555555,134.15502186737615L226.66728666666666,153.11524670196866L226.74565111111113,150.74428921266374L227.2653311111111,144.47505143477903L227.34782,155.29651739117136L227.44680666666667,144.35508028219124L227.90462,141.40776996344314L228.26344666666665,147.38458967524758L228.53153555555556,141.54223222922082L228.5892777777778,147.0340137803006L228.9274822222222,154.6735164119868L229.21619333333334,149.8581484195035L230.13182,144.12754502513656L230.63500222222223,133.50506524216323L230.91546444444447,140.10739984495154L230.95258444444445,134.55825106133645L231.15468222222222,136.40271208184734L231.5712511111111,138.87421973644362L231.69910888888887,143.5947319990317L231.72385555555556,140.29445075547218L231.88470888888887,143.45672149393272L232.2394111111111,139.12665907700844L232.75496666666666,150.9075231919288L232.77146444444443,148.74671561536786L232.9983088888889,150.3866018475151L233.00655777777777,148.7271327031288L233.0931711111111,139.83277625159224L233.18803333333335,143.9214930672395L233.61008,144.50098014706063L234.6411911111111,149.6990049769502L234.69068444444446,144.28524261057504L234.76904888888888,145.27301319444254L234.93815111111113,142.97526488306568L235.0866311111111,141.0069287395623L235.3629688888889,142.40052491284294L235.55269333333334,144.08338941250372L235.74654222222225,150.04079418846445L236.24972444444444,146.73953021447943L236.4312,142.87052465010336L237.1076088888889,138.32114231901556L237.15297777777778,126.39062340448613L237.3592,135.44233665102908L237.77576888888888,121.80576101085059L237.82113777777778,126.76604148829288L238.2212088888889,142.4911519115228L238.27895111111113,136.53755077273001L238.33669333333333,144.32574253410309L238.42330666666666,155.92301480251678L238.62540444444446,140.76298880742863L239.08734222222222,141.5968017349653L239.4008,145.8750735145815L239.4585422222222,154.37570029628324L239.71013333333335,158.00035826046496L240.1225777777778,153.9433604698135L240.1968177777778,146.5195583713504L240.46490666666668,143.1279766209395L240.84848,142.37819328591056L240.86910222222224,152.38275376966493L240.93096888888888,148.86595189577875L241.01758222222222,149.8308139801415L241.2568,155.4935505724187L241.32691555555556,152.31661707974882L241.48364444444445,149.15375522862323L241.52076444444444,147.1548887258199L241.52901333333332,146.85231648477478L241.7572111111111,147.62234293575622L242.08716666666666,153.51100955698215L242.39237555555553,149.5953009980519L242.4996111111111,147.3434340272903L242.6274688888889,128.10418163028714L242.8914333333333,134.71238635949706L244.43397555555555,145.719208425119L244.9742777777778,131.32842847456604L244.9784022222222,132.39218228310386L245.79091777777776,143.74994068890837L246.32709555555556,145.02730267971768L246.3394688888889,143.01304632264385L246.36421555555555,146.71355284355883L246.42195777777778,142.26325500668767L246.5085711111111,151.55553117192795L246.6817977777778,137.40543610332614L247.57267777777778,134.87371505783918L247.7129088888889,137.39210837773632L247.85314000000002,137.63151644284815L248.07998444444445,143.59179782042082L248.1294777777778,150.23703982334837L248.22021555555554,148.36186267078818L248.27383333333333,152.40483663762154L248.85125555555555,154.63546670844877L248.88425111111113,146.87133208138184L249.2719488888889,149.05877332223915L249.37506,150.68995423515716L249.91536222222223,148.81955334782646L250.61374666666669,137.75978277468707L250.96844888888887,132.49607740845696L251.01794222222222,134.72315518263827L251.06331111111112,143.5230487597218L251.08805777777778,151.47763073517268L251.7974622222222,148.93259761377206L251.96244000000002,155.52541070964355L253.27401333333333,161.84801291100038L253.31938222222223,156.20649110479266L253.56684888888887,153.1286469650454L254.09065333333334,146.9515699596516L254.20613777777777,149.54945149727533L254.80005777777777,142.169264833378L255.04340000000002,153.19517339482738L255.4805911111111,153.68591373690865L255.96727555555555,144.94614611583293L256.7632933333333,147.88456198285425L257.29947111111113,144.50366969532016L257.3159688888889,133.87036325708775L257.3695866666667,131.5448794971451L258.0336222222222,140.7584551698294L258.9341044444444,144.5582790688471L259.26406,150.796748490083L259.32180222222223,152.90541438516843L259.4909044444444,146.54149835262817L259.51565111111114,153.24886360737156L259.6063888888889,143.6603528915195L259.6435088888889,142.74773165335347L260.0724511111111,150.7357893511658L260.1466911111111,157.8048777535561L260.5096422222222,148.76385082930344L261.0540688888889,151.46303867179165L261.3881488888889,160.21626322792775L261.4005222222222,149.78096283272987L261.41289555555556,152.69225879190017L261.4995088888889,153.2232138376096L261.51600666666667,144.9883859670555L261.59024666666664,142.14966977336377L261.71398,146.234258155217L261.9573222222222,147.22970737230193L262.29552666666666,151.52161153084882L262.5842377777778,128.05266556696205L263.0461755555556,132.9293839070565L263.16578444444445,133.76196980079212L263.33488666666665,130.75141081571698L263.6648422222222,121.94085665559841L263.8133222222222,120.57928431043668L263.9865488888889,133.24305367475534L264.25051333333334,133.76711189750304L264.31650444444443,138.8647369623391L264.3206288888889,152.43915627480794L264.4361133333333,147.7380967025831L265.08777555555554,151.12908610611407L265.1042733333333,153.26434383934287L265.12902,142.39320651379552L265.49609555555554,142.57041694931584L266.25911777777776,140.262227166965L266.30861111111113,143.34546710805557L266.3828511111111,149.71887231920041L266.3911,142.5276204648845L266.9616266666667,139.41254190821843L267.0729866666666,142.306956364032L267.5143022222222,152.63487840492508L268.48354666666665,142.91765542506565L268.94136,147.2418909530603L269.10221333333334,152.90058069591305L269.23832,147.20567181804526L269.6548888888889,149.63671347557752L269.6961333333333,142.34793532526047L269.8363644444444,146.9323883809778L270.46328,147.4934368823846L270.5086488888889,148.8406694826412L270.94584000000003,151.86740439515876L271.13556444444447,144.84756971229058L271.2263022222222,153.42930937307443L271.2757955555556,148.01584403811316L272.0676888888889,137.1381829565669L272.19142222222223,139.17960109626682L272.8802044444445,144.58739227244516L273.00393777777776,137.3284480702237L273.03693333333337,146.81829125472044L273.21016000000003,142.29107197992883L273.53186666666664,136.80509374661972L273.90306666666663,142.60922104194003L274.06804444444447,147.47731200500868L274.3773777777778,149.1745707967552L274.5258577777778,156.98121753803926L274.9341777777778,148.63154577894232L275.02904,147.65417640020385L275.7233,141.31529612904748L276.0821266666667,145.59067272881248L276.61005555555556,154.43684803092228L276.89051777777775,152.92668792393056L277.48856222222224,142.93331342212107L277.7690244444444,148.29599114222376L277.7772733333333,153.41322842814355L278.3464466666667,164.36384863601822L279.19195777777776,166.44860033361138L279.49716666666666,165.1669185410024L279.61677555555553,149.19776674807554L279.6703933333333,148.9504246276646L280.12820666666664,151.09505400431328L280.3509266666667,151.81133285386667L280.3921711111111,153.2086215926606L280.5612733333333,150.3343829699396L280.6148911111111,142.7247420542263L280.76749555555557,132.2683188910975L280.89535333333333,128.34639408562742L281.39028666666667,137.81453055366373L281.9512111111111,145.30066892042456L283.4414888888889,149.30824940523325" style="fill: none;" fill="none"></path></g></g></g></g><g opacity="0.2"><g><g><g><path stroke="rgb(0, 153, 136)" stroke-width="2px" d="M38.23978666666667,-37.984341859817505L38.38826666666667,8.10368299484253L38.45425777777778,-20.269715309143066L38.466631111111106,0.6975041627883911L38.61098666666667,-12.718916773796082L39.114168888888884,-34.92080533504486L40.22776888888889,0.13255047798156738L40.31025777777778,-10.385019779205322L42.270722222222226,16.923163890838623L42.29134444444445,-6.073225736618042L43.12448222222223,-11.210158109664917L43.29358444444444,24.909446239471436L43.33070444444444,19.52838635444641L43.39257111111111,-6.660861968994141L43.42969111111111,16.037341833114624L43.64003777777778,15.469919443130493L43.71015333333334,31.87596344947815L44.48554888888889,19.647770404815674L44.939237777777784,13.952235460281372L45.025851111111116,-20.9798583984375L45.02997555555556,20.02145218849182L45.19495333333333,-11.62165117263794L45.49191333333333,19.333168745040894L45.5909,33.72242832183838L45.689886666666666,0.09636390209197998L46.06521111111111,48.372695446014404L46.26318444444444,-12.458478927612305L46.659131111111115,23.275522112846375L46.76636666666667,9.322885751724243L46.93134444444444,-10.951513767242432L47.071575555555555,40.16125452518463L47.13756666666667,21.735408782958984L47.29429555555556,39.61959528923035L47.35203777777778,14.145005464553833L47.36441111111111,36.20687413215637L47.53351333333334,30.37174129486084L47.822224444444444,18.443611979484558L48.094437777777785,1.5657076835632324L48.370775555555554,33.14335870742798L48.81621555555555,41.70008075237274L49.168146666666665,29.82809865474701L49.21764,58.382134437561035L49.465106666666664,40.63349461555481L49.51047555555556,23.19017243385315L49.65483111111111,52.993942737579346L50.03015555555555,8.963003396987915L50.071400000000004,68.16346085071564L50.94165777777778,71.71963065862656L51.04476888888889,54.95455884933472L51.39534666666667,47.63531219959259L51.56444888888888,47.96753239631653L52.150119999999994,65.52027940750122L52.16661777777778,60.881603479385376L52.356342222222224,44.9585816860199L53.21422666666667,46.7670031785965L53.38745333333333,39.49970483779907L53.40395111111111,61.903141021728516L53.61429777777778,44.29228448867798L53.66791555555555,51.72251737117767L53.771026666666664,28.600772380828857L53.92363111111111,54.66038203239441L54.05973777777778,26.832820773124695L54.33607555555555,74.45897555351257L54.505177777777774,68.02019155025482L54.71552444444444,64.31090927124023L55.59403111111111,37.12514805793762L56.27456444444445,47.16296660900116L56.41479555555556,53.979146003723145L56.46841333333334,92.43572795391083L56.78599555555556,54.1500141620636L56.88910666666667,76.52184247970581L56.95509777777778,54.858638048172L57.18606666666667,86.88852632045746L57.422513333333335,76.75828957557678L57.53387333333333,50.63094878196716L57.55037111111111,73.14411574602127L57.8927,60.17876100540161L58.11542,44.12799954414368L58.33401555555556,88.62891072034836L58.342264444444446,77.2450886964798L58.441251111111114,65.23521780967712L58.44537555555556,77.52974939346313L58.48662,78.50330543518066L59.23726888888889,71.0763852596283L59.31150888888889,72.39729022979736L59.3775,76.93491804599762L59.39812222222223,33.85246789455414L59.43524222222222,64.08735430240631L59.975544444444445,90.68667143583298L60.058033333333334,65.15493214130402L60.27250444444444,75.36697375774384L60.47047777777778,80.84186553955078L60.75506444444444,116.74681913852692L61.05202444444444,46.711594462394714L61.072646666666664,66.12308657169342L61.311864444444446,68.58149492740631L61.942904444444444,86.92283499240875L62.13262888888889,98.92636531591415L62.88740222222222,71.53683042526245L63.00288666666666,71.39489042758942L63.01938444444445,96.84194469451904L63.32871777777778,74.02195143699646L63.58030888888889,93.80163931846619L63.745286666666665,82.74827563762665L64.08761555555556,92.57424974441528L64.09998888888889,90.38608020544052L64.20722444444445,79.37327080965042L64.36395333333334,58.42129611968994L64.47531333333333,58.43159294128418L64.61554444444444,98.80712896585464L65.15584666666666,93.84809106588364L65.71677111111111,94.79920721054077L66.41103111111111,91.99190962314606L67.47101333333333,65.98726558685303L67.49576,108.0364043712616L67.75972444444444,94.05666500329971L67.92882666666667,80.63278520107269L68.07318222222223,101.62053501605988L68.19691555555555,83.20245409011841L68.3124,98.47859072685242L68.41138666666666,79.86856269836426L68.41963555555556,85.27647238969803L68.60523555555555,84.1711887717247L68.64648,91.24089574813843L68.79908444444445,97.03416609764099L68.82795555555556,87.31033730506897L69.57448,100.83259606361389L69.83432,87.5582628250122L69.96217777777778,95.40583348274231L70.37462222222223,61.11074995994568L70.53547555555556,76.71292448043823L70.68395555555556,61.531083941459656L70.81593777777778,112.40377593040466L71.55421333333334,103.2908883690834L71.59133333333334,121.01099038124084L72.10276444444445,87.41862273216248L72.27186666666667,91.44076591730118L72.44096888888889,95.14928859472275L72.44509333333333,92.65130710601807L72.78742222222222,110.26769185066223L72.91115555555557,120.45981502532959L73.02251555555556,88.52267199754715L73.11737777777778,95.81458353996277L73.24523555555555,99.44149124622345L73.24936,67.93235206604004L73.34834666666667,100.46204763650894L73.37309333333333,98.1740010380745L73.43083555555555,99.13151049613953L73.71954666666667,75.5806855559349L73.83090666666666,107.94273072481155L73.95876444444444,88.97221899032593L74.02888,113.75551861524582L74.24470444444444,91.95143973827362L74.31482,86.85174894332886L74.34369111111111,110.32753157615662L74.86749555555555,99.7394449710846L74.8798688888889,99.8088641166687L75.08609111111112,120.72324907779694L75.29231333333334,96.80341601371765L75.34593111111111,100.13544005155563L75.52328222222222,91.13206171989441L75.59339777777778,110.68507182598114L75.77074888888889,74.86804211139679L76.10895333333333,110.0651103258133L76.11720222222222,105.78424894809723L76.37291777777779,66.3229672908783L76.44303333333333,119.04182875156403L77.67624222222221,66.9833670258522L77.72986,95.06772637367249L77.80409999999999,79.99630236625671L77.96907777777777,88.83296924829483L78.06806444444445,81.06448155641556L78.09281111111112,120.132089138031L78.45576222222222,101.05136132240295L78.48050888888889,97.6630107164383L78.94657111111111,124.80659294128418L79.20641111111111,105.36066555976868L79.26827777777778,117.94061744213104L79.40850888888889,95.98511409759521L80.82319333333334,114.9959374666214L80.9593,78.09546267986298L81.07478444444445,91.92791318893433L81.15727333333334,99.70419734716415L81.81718444444445,78.94198590517044L82.01928222222223,74.95121848583221L82.42760222222222,87.76118195056915L82.44409999999999,123.97136878967285L82.67229777777777,107.88038009405136L82.94863555555555,108.79003465175629L83.00637777777777,121.67741417884827L83.16310666666666,101.57947432994843L83.34458222222221,114.58940291404724L83.3528311111111,90.08541512489319L83.50543555555556,87.61765944957733L83.66628888888889,93.06520557403564L83.98799555555556,119.52143275737762L84.18184444444444,124.81513845920563L84.62316,118.88022351264954L85.41917777777779,103.24298071861267L85.43567555555556,107.30946564674377L85.59652888888888,102.82493609189987L85.71201333333335,92.63900578022003L85.72851111111112,90.62137734889984L87.08132888888889,94.06646597385406L87.26692888888888,111.96829211711884L87.42778222222223,133.26256227493286L87.55151555555555,124.64630645513535L87.70411999999999,106.03940123319626L87.98045777777777,123.76290035247803L88.09594222222222,118.13634145259857L88.39702666666666,115.34195709228516L88.47539111111111,114.5035046339035L88.49601333333334,101.83148270845413L89.13530222222222,122.84192562103271L89.32915111111112,130.45876729488373L89.83233333333334,124.13172912597656L89.86945333333333,81.85975277423859L89.97668888888889,71.36275506019592L90.14166666666667,121.0794705748558L90.68196888888889,102.45351201295853L90.72733777777778,93.27505606412888L90.80157777777778,124.60169041156769L91.01327777777777,106.56790459156036L91.04214888888889,114.74115443229675L91.40922444444445,107.1680953502655L91.43809555555556,113.75043350458145L91.61957111111111,100.54031825065613L91.67731333333333,93.86582565307617L92.15574888888888,91.85621523857117L92.5187,98.46359914541245L92.60943777777779,104.15112662315369L93.02188222222222,112.42225956916809L93.32709111111112,133.86980044841766L93.45907333333332,126.04928004741669L93.51269111111111,76.60923886299133L93.76428222222222,108.87264132499695L94.15198000000001,132.35667407512665L94.34170444444445,115.91806215047836L94.36232666666666,124.64935541152954L94.52730444444444,103.40189570188522L94.58504666666667,94.41549235582352L94.64278888888889,130.66432392597198L94.70465555555556,91.5931926369667L94.83663777777777,117.92727166414261L94.89438,102.36344647407532L95.45118,108.54411363601685L95.60378444444444,98.84442329406738L95.80175777777778,122.80611884593964L95.95436222222223,130.73053586483002L96.09459333333334,113.07368123531342L96.58952666666667,110.27818912267685L96.70501111111112,114.53701150417328L97.20819333333333,113.77363300323486L97.3443,107.55095565319061L97.45566000000001,117.54154175519943L98.33004222222222,105.45098429918289L98.51151777777777,119.26264071464539L98.68062,113.65040874481201L98.96108222222222,127.70624542236328L98.96520666666667,115.03913980722427L99.19205111111111,89.87594443559647L99.48624000000001,111.63714802265167L99.81207111111111,124.44301807880402L99.95642666666667,125.7427808046341L101.21025777777778,123.74676936864853L101.63507555555555,99.46837270259857L101.76705777777778,132.75730061531067L101.8248,122.67747187614441L101.83717333333334,136.3665475845337L101.93616,95.55684649944305L102.10113777777778,130.65122079849243L102.81466666666665,98.8072766661644L102.83941333333334,153.34438169002533L102.84353777777778,138.03682708740234L103.40446222222222,97.14359092712402L103.94476444444444,129.83752924203873L104.0973688888889,110.38175868988037L104.64179555555555,123.70833563804626L104.92638222222222,127.81583905220032L105.15735111111111,119.00684487819672L105.1944711111111,102.09535986185074L105.33470222222222,108.81208419799805L105.95336888888889,104.31460976600647L106.4648,111.93790805339813L106.94323555555555,114.81495183706284L106.97623111111112,147.5349065065384L106.99272888888889,103.54937446117401L107.00922666666666,118.75728410482407L108.11180666666667,124.53974068164825L108.37164666666666,131.92541027069092L108.42526444444445,108.11759734153748L108.46238444444445,124.71752965450287L108.59436666666666,147.6211212873459L109.57186,121.69146680831909L109.59660666666666,128.54619598388672L109.65847333333333,138.55069756507874L109.72034000000001,106.30381643772125L110.16990444444446,126.83398014307022L110.52873111111111,134.1949943304062L111.01541555555555,119.10268127918243L111.03191333333334,105.91763287782669L111.42786000000001,94.41823536157608L111.71244666666668,125.81481635570526L111.88154888888889,107.53570032119751L112.12076666666667,115.94576650857925L112.24037555555554,102.69897937774658L112.29811777777778,144.0038246512413L112.61982444444443,121.7501460313797L112.63219777777778,99.02989268302917L112.81779777777777,114.43585789203644L113.11063333333333,107.24607056379318L113.26323777777779,102.27435153722763L114.03450888888888,125.14476335048676L114.11699777777778,159.36117535829544L114.25722888888887,163.54153722524643L114.32322,123.3519875407219L114.3685888888889,110.08213806152344L114.63255333333333,107.2586145401001L114.68617111111112,107.20122241973877L115.97022666666666,135.06586700677872L116.18057333333334,129.0177292227745L116.31255555555555,155.2665113210678L116.34967555555555,126.40868765115738L116.42804,111.30344027280807L116.50228,99.9879823923111L116.72087555555555,126.40274798870087L117.07145333333332,137.44594144821167L117.08382666666667,124.01717698574066L117.2364311111111,115.15235209465027L117.35191555555556,128.8806105852127L117.42615555555555,147.885547041893L117.43440444444444,103.49782705307007L117.82210222222221,118.0404417514801L118.15618222222223,131.82156640291214L118.60987111111112,112.38957560062408L118.67998666666666,145.45767045021057L118.72535555555557,154.70976555347443L118.81196888888888,144.1296969652176L118.96044888888889,130.24141573905945L119.02644000000001,124.81682646274567L119.34402222222222,131.8035786151886L119.77296444444444,140.74607276916504L119.91319555555556,62.14064311981201L120.09467111111111,127.97773969173431L120.42050222222223,145.52787029743195L121.21239555555556,145.3634798526764L121.25776444444445,110.25800693035126L121.27838666666666,115.53546559810638L121.37324888888888,139.9431105852127L121.60009333333333,148.89405530691147L121.60834222222222,114.43305158615112L122.16101777777777,142.41941177845L123.19625333333333,128.9971250295639L123.29523999999999,113.93629324436188L123.53858222222222,150.8534792661667L123.60457333333333,94.37423121929169L124.20261777777777,132.86432003974915L124.49268222222223,125.40617179870605L124.50093111111111,139.31679797172546L124.65353555555555,110.81428849697113L125.82900222222223,128.493403673172L126.05172222222222,121.84877818822861L126.15483333333333,156.0079774260521L126.73225555555555,93.62465214729309L127.35092222222222,118.40803617238998L127.44578444444444,100.06731855869293L127.49527777777779,97.69588458538055L128.41915333333333,129.3924765586853L128.7326111111111,146.21372723579407L128.73673555555555,117.97810167074203L129.1203088888889,131.17618989944458L129.48738444444444,123.74702256917953L129.49563333333333,96.7192268371582L129.71835333333334,109.50419729948044L129.73072666666667,155.93764570355415L131.47124222222223,123.21322309970856L132.7388,159.87924474477768L133.11412444444443,131.3697406053543L133.13062222222223,121.78096264600754L133.20898666666668,135.3422248363495L133.67917333333335,142.80128037929535L134.08336888888888,156.72092682123184L134.14111111111112,96.10306334495544L134.3060888888889,139.5008220076561L134.5948,145.60024344921112L134.65666666666667,122.77754938602448L134.7886488888889,144.77911412715912L134.81752,143.32162857055664L135.0484888888889,116.02397382259369L135.13922666666667,148.06948667764664L135.26708444444444,122.93691802024841L135.52280000000002,112.26976954936981L135.76614222222224,150.20064389705658L136.3311911111111,111.4052585363388L136.94573333333335,133.37937211990356L137.1354577777778,151.47723877429962L137.9809688888889,123.1753801703453L138.2036888888889,139.58451533317566L138.24493333333334,141.9775346517563L138.25318222222222,143.36718356609344L138.4264088888889,133.775905251503L138.66150222222223,134.43637883663177L139.08632,111.91429710388184L139.13581333333335,111.37312316894531L139.82872,134.8020215034485L139.86584,101.6758804321289L140.05968888888887,129.61286652088165L140.51337777777778,117.38674128055573L140.62473777777777,123.43159800767899L140.67835555555556,143.84234601259232L140.98356444444443,117.66524076461792L141.1622688888889,127.72403275966644L141.6943222222222,138.78653275966644L142.0902688888889,148.55623304843903L142.2841177777778,149.91402089595795L142.53158444444443,99.16985982656479L142.7873,143.35493499040604L142.79142444444443,141.33809781074524L143.4265888888889,160.14623415470123L143.60806444444444,144.3595608472824L143.6699311111111,116.93319582939148L143.97926444444445,147.00228863954544L144.0576288888889,114.86463189125061L144.12774444444443,123.1910047531128L144.82065111111112,116.69471257925034L145.06399333333331,155.54238384962082L145.37332666666666,121.11775660514832L145.3857,138.68263614177704L145.42282,147.3646502494812L145.69915777777777,128.13744592666626L145.76514888888892,126.26260149478912L146.13222444444443,120.5811402797699L146.23533555555554,151.2406017780304L146.81688222222223,165.00018328428268L146.9529888888889,152.0322648882866L146.98598444444445,122.2285367846489L147.23757555555557,130.9251521229744L147.69951333333333,127.90232813358307L147.86036666666666,133.43903249502182L148.09546,161.9333235025406L149.17194,102.98625648021698L149.53624444444443,130.90081322193146L149.56924,120.8532464504242L149.79608444444446,136.9536035656929L150.20852888888888,170.39344426989555L150.94680444444444,135.32859420776367L151.1942711111111,129.67514330148697L151.30975555555554,115.7238256931305L151.68095555555556,148.37930917739868L151.7304488888889,141.86326736211777L152.31612,127.94978213310242L152.8646711111111,145.47575318813324L153.0750177777778,161.62283635139465L153.46271555555555,141.32442498207092L153.57407555555557,128.07804930210114L153.8174177777778,124.34481847286224L154.12675111111113,144.63921028375626L154.35359555555556,113.1926960349083L154.41958666666667,120.61572325229645L154.5639422222222,159.01826798915863L154.5886888888889,145.29880821704865L155.03000444444444,133.91025978326797L155.05887555555557,106.27870738506317L155.12899111111113,129.90508103370667L155.22385333333332,107.31279945373535L155.29396888888888,113.18588072061539L155.40120444444446,145.09369468688965L155.8136488888889,141.30875819921494L155.91676,138.51769709587097L156.1477288888889,109.78388893604279L156.19722222222222,147.77403330802917L156.25084,134.44556790590286L156.74577333333335,120.51904284954071L156.9767422222222,139.51420998573303L156.99324,117.10861104726791L157.1582177777778,123.3597207069397L157.29432444444444,141.8073205947876L157.36031555555556,147.22925126552582L158.76398,139.95391380786896L158.8175977777778,122.71271950006485L159.0155711111111,166.4757568538189L159.59711777777778,161.04657831788063L159.70847777777777,136.49266254901886L159.87345555555558,118.78908187150955L159.90645111111112,126.14701545238495L160.06730444444443,142.14335989952087L161.04892222222222,136.75753140449524L161.33763333333334,139.09371775388718L161.5933488888889,125.1010229587555L161.73358000000002,157.7122332751751L161.97692222222224,136.96562004089355L162.54609555555558,92.4261485338211L162.63683333333333,145.10474056005478L162.76469111111112,153.9351407289505L162.9131711111111,118.41334283351898L162.92966888888887,120.39908909797668L162.96266444444444,142.83409094810486L163.22250444444444,135.8069533109665L163.76280666666668,136.02620387077332L163.82879777777777,125.57943481206894L163.88654,143.21887135505676L163.97315333333333,158.59872525930405L164.06801555555555,115.44277310371399L164.14225555555555,134.3623387813568L164.22474444444444,150.52929818630219L164.8805311111111,134.86190342903137L165.02488666666667,137.34395438432693L165.2146111111111,111.54031991958618L166.25532444444445,138.01701414585114L166.31306666666666,151.10334599018097L166.51104,112.59863483905792L166.7048888888889,125.30616813898087L167.24106666666665,162.80474478006363L167.50915555555557,132.60571789741516L167.51328,126.26011168956757L167.56277333333333,149.2491796016693L167.5668977777778,135.78454506397247L167.88448,130.33824384212494L168.14844444444444,129.94732332229614L168.3381688888889,128.62288409471512L169.05169777777778,110.17519980669022L169.43939555555556,146.64625704288483L169.9714488888889,119.57088071107864L170.0456888888889,137.4236387014389L170.10755555555554,138.17788088321686L171.17991111111112,119.24218422174454L171.21290666666667,166.6430327296257L171.60060444444446,133.48894464969635L171.83157333333332,128.64424788951874L171.85219555555557,130.64541828632355L171.86044444444445,151.47704887390137L171.94293333333334,133.28456962108612L172.49973333333332,147.1747076511383L172.78019555555554,152.65913665294647L172.85443555555557,137.95763862133026L173.22563555555556,138.8127179145813L173.55146666666664,143.04829859733582L173.57208888888889,140.68298363685608L173.91441777777777,154.99787610769272L174.32686222222222,117.38045346736908L174.37223111111112,152.5621924996376L174.47121777777778,91.21230518817902L174.97987777777777,120.50081241130829L175.46656222222222,138.0799344778061L176.02748666666668,149.5471544265747L176.15946888888888,132.23051691055298L176.25020666666666,135.75757920742035L176.27907777777776,150.52131181955338L176.31619777777777,128.33207273483276L176.32444666666666,141.8550066947937L176.33269555555555,140.07126170396805L176.3986866666667,160.9151092171669L176.72451777777778,151.95078706741333L177.00498,132.08719485998154L177.11221555555557,116.04581236839294L177.2483222222222,126.23523473739624L177.4297977777778,150.2008654475212L178.08970888888888,155.13768500089645L178.44853555555557,145.7569534778595L178.50215333333335,134.16547536849976L178.70425111111112,138.96573543548584L178.80736222222222,166.80426344275475L178.92284666666666,130.80297231674194L179.15381555555555,115.22584354877472L179.4384022222222,144.39438647031784L179.6858688888889,128.42693853378296L180.03644666666668,127.5126314163208L180.13955777777778,174.86383152008057L180.30041111111112,156.95867684483528L180.44476666666668,145.38185799121857L180.69223333333332,123.92881000041962L181.2449088888889,145.5269313454628L181.42638444444444,103.24854058027267L181.73984222222222,131.362049639225L182.72558444444445,138.91826033592224L183.11463555555554,118.77683329582214L183.18062666666665,135.0331830382347L183.25899111111113,184.1957375407219L183.48583555555555,143.7649405002594L183.51883111111113,144.75234872102737L183.6673111111111,132.44372230768204L184.21998666666667,146.01952242851257L184.31072444444445,161.20051896572113L184.31897333333333,160.03933078050613L184.3313466666667,138.35315895080566L184.38084,146.10829031467438L184.4385822222222,141.84726297855377L184.52107111111113,129.17037749290466L184.76441333333335,135.24478483200073L185.049,149.79362404346466L185.10674222222224,119.8857250213623L185.2593466666667,146.36822175979614L185.53156,162.90049678087234L185.6222977777778,120.30781030654907L186.29458222222223,118.1957380771637L186.83488444444444,145.6430343389511L186.94624444444446,150.36186933517456L186.95449333333332,128.19326609373093L187.14834222222223,129.27120405435562L187.30094666666665,146.41265845298767L187.44942666666668,138.92503345012665L187.56078666666664,119.60087442398071L187.87012,146.57647919654846L188.09284,155.4118009507656L188.1134622222222,103.57655131816864L188.64551555555553,110.21779024600983L188.8269911111111,139.48777163028717L189.63125777777776,163.20423191785812L190.4973911111111,134.20834010839462L190.50151555555556,135.37330520153046L190.55925777777776,127.94287186861038L190.5881288888889,146.52313828468323L190.91396,142.09843790531158L191.04181777777777,148.3226028084755L191.2274177777778,124.21529585123062L192.22276222222223,145.57556694746017L192.36299333333332,144.86196345090866L192.53209555555554,136.03595209121704L192.60633555555555,155.95469453930855L192.65170444444445,161.2786946296692L193.13013999999998,157.2205758690834L193.86841555555557,156.58884054422379L194.00452222222222,157.61495152115822L194.0086466666667,134.4206382036209L194.88715333333334,133.1427984237671L194.99438888888886,151.6020666360855L195.2995977777778,147.4024720788002L195.45220222222224,166.62213841080666L195.50582,142.17465126514435L195.89351777777776,140.33015924692154L195.96363333333332,151.4564130306244L196.00487777777778,132.1272532939911L196.37195333333332,127.3614706993103L196.94112666666666,140.50129115581512L197.16384666666667,162.6007073521614L197.27520666666666,147.43493449687958L197.35769555555555,131.96813786029816L197.60516222222222,126.52848315238953L197.8691266666667,129.03514730930328L197.8732511111111,154.26204371452332L197.95161555555555,119.4198676943779L198.12484222222224,125.60050320625305L198.17846,156.39320093393326L198.32694,141.96019041538239L198.4960422222222,132.48413944244385L198.5207888888889,165.54593592882156L198.6692688888889,132.87472236156464L198.86724222222225,135.742218375206L199.30443333333332,152.15046733617783L199.37867333333332,143.02394914627075L199.5972688888889,129.3406548500061L199.69625555555558,148.41096979379654L200.41938666666667,159.3360874056816L200.4523822222222,155.59557178616524L200.65035555555554,153.45697152614594L200.79058666666666,161.7123743891716L200.94731555555555,175.7456392943859L201.03392888888888,129.97954308986664L201.45049777777777,107.92491173744202L201.5618577777778,136.7670053243637L201.57423111111112,137.2814666032791L201.5907288888889,155.7122603058815L201.81757333333334,142.63782888650894L201.82169777777779,131.8061317205429L202.35787555555555,155.61344879865646L202.47336,154.97340005636215L202.8156888888889,143.4000574350357L203.22400888888887,108.40860915184021L203.43435555555556,164.4435641169548L203.48384888888887,142.4389293193817L203.50447111111112,164.90811324119568L203.60758222222222,144.25928288698196L203.63645333333332,145.70758992433548L203.69832,126.83657544851303L203.70656888888888,138.24930453300476L203.78905777777777,125.12274545431137L203.97053333333335,139.90753591060638L204.02827555555558,161.4531392455101L204.4572177777778,148.3266223669052L205.03464,158.27846878767014L205.23261333333335,114.00797009468079L205.2656088888889,118.29470783472061L205.44708444444444,138.2476481795311L205.60793777777778,136.62368327379227L205.61206222222222,135.0755941271782L205.88427555555555,142.92640364170074L205.92552,141.38897001743317L205.93789333333334,144.3605630993843L206.90301333333335,132.17441189289093L207.1711022222222,127.76393294334412L207.29896,132.6364923119545L207.6041688888889,139.9865344762802L208.27780666666666,125.45176899433136L208.36854444444444,174.8203759789467L208.56239333333335,126.98424410820007L208.8841,129.4703779220581L208.92122,140.97794115543365L208.97896222222224,155.48588848114014L209.0532022222222,162.22582814097404L209.10682,170.7891703248024L209.31716666666668,135.71450346708298L209.40790444444445,158.60377344489098L210.08843777777776,140.3115490078926L210.4720111111111,110.84003055095673L210.48438444444443,136.29151582717896L210.74009999999998,133.81031942367554L211.07005555555554,159.83134764432907L211.59798444444445,136.38140201568604L211.8042066666667,134.88783538341522L211.95268666666666,134.6668335199356L212.0393,127.15850937366486L212.72395777777777,126.80140167474747L213.14877555555557,133.59187066555023L213.28075777777778,168.00533598661423L214.38610888888888,153.08892345428467L214.69544222222223,150.01206225156784L214.81092666666666,150.5791575908661L215.08314000000001,143.71781355142593L215.14088222222222,121.90215075016022L215.34710444444443,138.12237721681595L215.55332666666666,153.58443689346313L215.59044666666665,127.65841162204742L215.62756666666667,142.5614572763443L215.63994,142.12185895442963L215.7966688888889,127.75840473175049L216.21736222222222,157.32531648874283L216.57341777777776,144.90894269943237L216.62703555555555,135.52552092075348L216.65178222222224,139.6834534406662L216.65590666666668,148.06012880802155L216.77964,128.45381999015808L217.00235999999998,128.95405983924866L217.66639555555557,127.90744489431381L217.82312444444446,162.61765068769455L217.9509822222222,136.72130262851715L218.0334711111111,159.84262561798096L218.78412,146.8060160279274L219.35329333333334,126.8742601275444L219.52652,161.1860021352768L219.95133777777775,157.283886551857L220.12044,137.98743188381195L220.16580888888888,192.33977437019348L220.26479555555554,145.0637115240097L220.31428888888888,152.23941457271576L220.88758666666666,161.61218082904816L221.0773111111111,153.1728910803795L221.73722222222221,142.9416378736496L221.78671555555556,115.55951964855194L221.8939511111111,152.54086035490036L223.01992444444443,131.22967851161957L223.70870666666664,137.80493760108948L223.91905333333332,146.7486344575882L223.96854666666664,155.2834335565567L224.40573777777777,113.74628734588623L224.86490444444445,166.65513360500336L225.49182,143.7683692574501L225.5578111111111,129.24842655658722L225.63617555555555,139.18753910064697L225.64030000000002,134.67487263679504L226.06099333333333,143.25596523284912L226.08161555555554,152.66481256484985L226.14348222222222,142.55069625377655L226.15585555555558,156.5843515098095L226.20122444444445,144.5532592535019L226.27134,154.83453011512756L226.28783777777778,141.57078909873962L226.35382888888887,167.6354627609253L226.41569555555557,127.29755866527557L226.47343777777778,135.97803246974945L226.63841555555555,124.204460978508L226.66728666666666,181.55558395385742L226.74565111111113,147.18785297870636L227.2653311111111,135.07119476795197L227.34782,171.5287163257599L227.44680666666667,127.94292461872101L227.90462,136.98680448532104L228.26344666666665,156.34981924295425L228.53153555555556,132.77869606018066L228.5892777777778,155.27168610692024L228.9274822222222,166.13277035951614L229.21619333333334,142.6350964307785L230.13182,135.53163993358612L230.63500222222223,117.57134556770325L230.91546444444447,150.01090174913406L230.95258444444445,126.23452788591385L231.15468222222222,139.16940361261368L231.5712511111111,142.581481218338L231.69910888888887,150.67550039291382L231.72385555555556,135.3440288901329L231.88470888888887,148.20012760162354L232.2394111111111,132.631565451622L232.75496666666666,168.5788193643093L232.77146444444443,145.50550425052643L232.9983088888889,152.84643119573593L233.00655777777777,146.23792898654938L233.0931711111111,126.49124157428741L233.18803333333335,150.05456829071045L233.61008,145.3702107667923L234.6411911111111,157.4960422217846L234.69068444444446,136.16459906101227L234.76904888888888,146.75466907024384L234.93815111111113,139.52864241600037L235.0866311111111,138.05442452430725L235.3629688888889,144.49091917276382L235.55269333333334,146.60768616199493L235.74654222222225,158.97690135240555L236.24972444444444,141.7876342535019L236.4312,137.06701630353928L237.1076088888889,131.49706882238388L237.15297777777778,108.49484503269196L237.3592,149.0199065208435L237.77576888888888,101.35089755058289L237.82113777777778,134.20646220445633L238.2212088888889,166.07881754636765L238.27895111111113,127.60714906454086L238.33669333333333,156.00803017616272L238.42330666666666,173.31892320513725L238.62540444444446,118.02294981479645L239.08734222222222,142.8475211262703L239.4008,152.29248118400574L239.4585422222222,167.12664046883583L239.71013333333335,163.43734520673752L240.1225777777778,147.85786378383636L240.1968177777778,135.3838552236557L240.46490666666668,138.04060399532318L240.84848,141.25351828336716L240.86910222222224,167.38959449529648L240.93096888888888,143.5907490849495L241.01758222222222,151.27810710668564L241.2568,163.9876554608345L241.32691555555556,147.55121684074402L241.48364444444445,144.40946245193481L241.52076444444444,144.15658897161484L241.52901333333332,146.3984581232071L241.7572111111111,148.7773826122284L242.08716666666666,162.34400948882103L242.39237555555553,143.72173815965652L242.4996111111111,143.96563357114792L242.6274688888889,99.24530303478241L242.8914333333333,144.62469345331192L244.43397555555555,162.22944152355194L244.9742777777778,109.74225854873657L244.9784022222222,133.98781299591064L245.79091777777776,160.78657829761505L246.32709555555556,146.9433456659317L246.3394688888889,139.99166178703308L246.36421555555555,152.26431262493134L246.42195777777778,135.58780825138092L246.5085711111111,165.49394541978836L246.6817977777778,116.18029350042343L247.57267777777778,131.07613348960876L247.7129088888889,141.1696983575821L247.85314000000002,137.9906285405159L248.07998444444445,152.53221988677979L248.1294777777778,160.20490282773972L248.22021555555554,145.54909694194794L248.27383333333333,158.46929758787155L248.85125555555555,157.98141181468964L248.88425111111113,135.2251301407814L249.2719488888889,152.33993518352509L249.37506,153.13672560453415L249.91536222222223,146.01395201683044L250.61374666666669,121.17012691497803L250.96844888888887,124.60051935911179L251.01794222222222,138.06377184391022L251.06331111111112,156.72288912534714L251.08805777777778,163.409503698349L251.7974622222222,145.11504793167114L251.96244000000002,165.41463035345078L253.27401333333333,171.33191621303558L253.31938222222223,147.7442083954811L253.56684888888887,148.5118807554245L254.09065333333334,137.68595445156097L254.20613777777777,153.44627380371094L254.80005777777777,131.09898483753204L255.04340000000002,169.73403623700142L255.4805911111111,154.42202425003052L255.96727555555555,131.83649468421936L256.7632933333333,152.29218578338623L257.29947111111113,139.432331264019L257.3159688888889,117.92040359973907L257.3695866666667,128.05665385723114L258.0336222222222,154.5788186788559L258.9341044444444,150.25801491737366L259.26406,160.1544526219368L259.32180222222223,156.06841322779655L259.4909044444444,136.99562430381775L259.51565111111114,163.3099114894867L259.6063888888889,129.2775868177414L259.6435088888889,141.37879979610443L260.0724511111111,162.71787589788437L260.1466911111111,168.4085103571415L260.5096422222222,135.2023104429245L261.0540688888889,155.511820435524L261.3881488888889,173.34610006213188L261.4005222222222,134.128012239933L261.41289555555556,157.05920273065567L261.4995088888889,154.0196464061737L261.51600666666667,132.63614416122437L261.59024666666664,137.89159548282623L261.71398,152.36114072799683L261.9573222222222,148.72288119792938L262.29552666666666,157.95946776866913L262.5842377777778,92.8492466211319L263.0461755555556,140.24446141719818L263.16578444444445,135.01084864139557L263.33488666666665,126.23557233810425L263.6648422222222,108.72502541542053L263.8133222222222,118.53692579269409L263.9865488888889,152.23870772123337L264.25051333333334,134.5531992316246L264.31650444444443,146.5111745595932L264.3206288888889,172.8007852435112L264.4361133333333,140.6865073442459L265.08777555555554,156.21557021141052L265.1042733333333,156.4672304391861L265.12902,126.08650052547455L265.49609555555554,142.83623260259628L266.25911777777776,136.79994249343872L266.30861111111113,147.97032701969147L266.3828511111111,159.27898013591766L266.3911,131.74074268341064L266.9616266666667,134.7399240732193L267.0729866666666,146.64857804775238L267.5143022222222,168.12676146626472L268.48354666666665,128.3418209552765L268.94136,153.72824424505234L269.10221333333334,161.3886153101921L269.23832,138.6633085012436L269.6548888888889,153.28327596187592L269.6961333333333,131.41476809978485L269.8363644444444,153.80906796455383L270.46328,148.33500963449478L270.5086488888889,150.86151838302612L270.94584000000003,156.4075067639351L271.13556444444447,134.31781768798828L271.2263022222222,166.30191886425018L271.2757955555556,139.89564603567123L272.0676888888889,120.82169133424759L272.19142222222223,142.24172830581665L272.8802044444445,152.69907903671265L273.00393777777776,126.44003176689148L273.03693333333337,161.05305603146553L273.21016000000003,135.5002430677414L273.53186666666664,128.57612639665604L273.90306666666663,151.3154119849205L274.06804444444447,154.77944844961166L274.3773777777778,151.720458984375L274.5258577777778,168.6911876499653L274.9341777777778,136.10703814029694L275.02904,146.1881223320961L275.7233,131.80697572231293L276.0821266666667,152.00373762845993L276.61005555555556,167.706110984087L276.89051777777775,150.661447763443L277.48856222222224,127.94325166940689L277.7690244444444,156.34000772237778L277.7772733333333,161.08908435702324L278.3464466666667,180.7897789478302L279.19195777777776,169.57572788000107L279.49716666666666,163.24439585208893L279.61677555555553,125.2440390586853L279.6703933333333,148.5794114470482L280.12820666666664,154.31199806928635L280.3509266666667,152.88575112819672L280.3921711111111,155.30455470085144L280.5612733333333,146.02302503585815L280.6148911111111,131.31028068065643L280.76749555555557,116.58368414640427L280.89535333333333,122.46350687742233L281.39028666666667,152.01673525571823L281.9512111111111,156.5298764705658L283.4414888888889,155.3196201324463" style="fill: none;" fill="none"></path></g></g></g></g></g></g><g transform="translate(40, 177)" clip-path="url(#clip_1)"><clipPath id="clip_1"><rect width="290" height="23"></rect></clipPath><g><g><line x1="0" y1="0" x2="0" y2="5" style="visibility: inherit;" fill="rgb(0, 0, 0)" stroke="rgb(204, 204, 204)" stroke-width="1px"></line><line x1="32.22222222222222" y1="0" x2="32.22222222222222" y2="5" style="visibility: inherit;" fill="rgb(0, 0, 0)" stroke="rgb(204, 204, 204)" stroke-width="1px"></line><line x1="64.44444444444444" y1="0" x2="64.44444444444444" y2="5" style="visibility: inherit;" fill="rgb(0, 0, 0)" stroke="rgb(204, 204, 204)" stroke-width="1px"></line><line x1="96.66666666666666" y1="0" x2="96.66666666666666" y2="5" style="visibility: inherit;" fill="rgb(0, 0, 0)" stroke="rgb(204, 204, 204)" stroke-width="1px"></line><line x1="128.88888888888889" y1="0" x2="128.88888888888889" y2="5" style="visibility: inherit;" fill="rgb(0, 0, 0)" stroke="rgb(204, 204, 204)" stroke-width="1px"></line><line x1="161.11111111111111" y1="0" x2="161.11111111111111" y2="5" style="visibility: inherit;" fill="rgb(0, 0, 0)" stroke="rgb(204, 204, 204)" stroke-width="1px"></line><line x1="193.33333333333331" y1="0" x2="193.33333333333331" y2="5" style="visibility: inherit;" fill="rgb(0, 0, 0)" stroke="rgb(204, 204, 204)" stroke-width="1px"></line><line x1="225.55555555555557" y1="0" x2="225.55555555555557" y2="5" style="visibility: inherit;" fill="rgb(0, 0, 0)" stroke="rgb(204, 204, 204)" stroke-width="1px"></line><line x1="257.77777777777777" y1="0" x2="257.77777777777777" y2="5" style="visibility: inherit;" fill="rgb(0, 0, 0)" stroke="rgb(204, 204, 204)" stroke-width="1px"></line><line x1="290" y1="0" x2="290" y2="5" style="visibility: inherit;" fill="rgb(0, 0, 0)" stroke="rgb(204, 204, 204)" stroke-width="1px"></line></g><g transform="translate(0, 8)"><text x="0" y="0" dx="0em" dy="0.95em" style="text-anchor: middle; visibility: hidden; font-family: Roboto, sans-serif; font-size: 12px; font-weight: 200;" fill="rgb(33, 33, 33)" stroke="none" stroke-width="1px">-500k</text><text x="32.22222222222222" y="0" dx="0em" dy="0.95em" style="text-anchor: middle; visibility: inherit; font-family: Roboto, sans-serif; font-size: 12px; font-weight: 200;" fill="rgb(33, 33, 33)" stroke="none" stroke-width="1px">0</text><text x="64.44444444444444" y="0" dx="0em" dy="0.95em" style="text-anchor: middle; visibility: inherit; font-family: Roboto, sans-serif; font-size: 12px; font-weight: 200;" fill="rgb(33, 33, 33)" stroke="none" stroke-width="1px">500k</text><text x="96.66666666666666" y="0" dx="0em" dy="0.95em" style="text-anchor: middle; visibility: inherit; font-family: Roboto, sans-serif; font-size: 12px; font-weight: 200;" fill="rgb(33, 33, 33)" stroke="none" stroke-width="1px">1M</text><text x="128.88888888888889" y="0" dx="0em" dy="0.95em" style="text-anchor: middle; visibility: inherit; font-family: Roboto, sans-serif; font-size: 12px; font-weight: 200;" fill="rgb(33, 33, 33)" stroke="none" stroke-width="1px">1.5M</text><text x="161.11111111111111" y="0" dx="0em" dy="0.95em" style="text-anchor: middle; visibility: inherit; font-family: Roboto, sans-serif; font-size: 12px; font-weight: 200;" fill="rgb(33, 33, 33)" stroke="none" stroke-width="1px">2M</text><text x="193.33333333333331" y="0" dx="0em" dy="0.95em" style="text-anchor: middle; visibility: inherit; font-family: Roboto, sans-serif; font-size: 12px; font-weight: 200;" fill="rgb(33, 33, 33)" stroke="none" stroke-width="1px">2.5M</text><text x="225.55555555555557" y="0" dx="0em" dy="0.95em" style="text-anchor: middle; visibility: inherit; font-family: Roboto, sans-serif; font-size: 12px; font-weight: 200;" fill="rgb(33, 33, 33)" stroke="none" stroke-width="1px">3M</text><text x="257.77777777777777" y="0" dx="0em" dy="0.95em" style="text-anchor: middle; visibility: inherit; font-family: Roboto, sans-serif; font-size: 12px; font-weight: 200;" fill="rgb(33, 33, 33)" stroke="none" stroke-width="1px">3.5M</text><text x="290" y="0" dx="0em" dy="0.95em" style="text-anchor: middle; visibility: hidden; font-family: Roboto, sans-serif; font-size: 12px; font-weight: 200;" fill="rgb(33, 33, 33)" stroke="none" stroke-width="1px">4M</text></g><line x1="0" y1="0" x2="290" y2="0" fill="rgb(0, 0, 0)" stroke="rgb(204, 204, 204)" stroke-width="1px"></line></g></g></g></g></svg>