<svg viewBox="0 0 330 200" xmlns="http://www.w3.org/2000/svg"><g><g><g><g><g><line x1="30" y1="178" x2="25" y2="178" style="visibility: inherit;" fill="rgb(0, 0, 0)" stroke="rgb(204, 204, 204)" stroke-width="1px"></line><line x1="30" y1="160.2" x2="25" y2="160.2" style="visibility: inherit;" fill="rgb(0, 0, 0)" stroke="rgb(204, 204, 204)" stroke-width="1px"></line><line x1="30" y1="142.4" x2="25" y2="142.4" style="visibility: inherit;" fill="rgb(0, 0, 0)" stroke="rgb(204, 204, 204)" stroke-width="1px"></line><line x1="30" y1="124.6" x2="25" y2="124.6" style="visibility: inherit;" fill="rgb(0, 0, 0)" stroke="rgb(204, 204, 204)" stroke-width="1px"></line><line x1="30" y1="106.8" x2="25" y2="106.8" style="visibility: inherit;" fill="rgb(0, 0, 0)" stroke="rgb(204, 204, 204)" stroke-width="1px"></line><line x1="30" y1="89" x2="25" y2="89" style="visibility: inherit;" fill="rgb(0, 0, 0)" stroke="rgb(204, 204, 204)" stroke-width="1px"></line><line x1="30" y1="71.2" x2="25" y2="71.2" style="visibility: inherit;" fill="rgb(0, 0, 0)" stroke="rgb(204, 204, 204)" stroke-width="1px"></line><line x1="30" y1="53.400000000000006" x2="25" y2="53.400000000000006" style="visibility: inherit;" fill="rgb(0, 0, 0)" stroke="rgb(204, 204, 204)" stroke-width="1px"></line><line x1="30" y1="35.599999999999994" x2="25" y2="35.599999999999994" style="visibility: inherit;" fill="rgb(0, 0, 0)" stroke="rgb(204, 204, 204)" stroke-width="1px"></line><line x1="30" y1="17.799999999999983" x2="25" y2="17.799999999999983" style="visibility: inherit;" fill="rgb(0, 0, 0)" stroke="rgb(204, 204, 204)" stroke-width="1px"></line><line x1="30" y1="0" x2="25" y2="0" style="visibility: inherit;" fill="rgb(0, 0, 0)" stroke="rgb(204, 204, 204)" stroke-width="1px"></line></g><g transform="translate(20, 0)"><text x="0" y="178" dx="0em" dy="0.3em" style="text-anchor: end; visibility: hidden; font-family: &quot;Helvetica Neue&quot;, sans-serif; font-size: 12px; font-weight: 200;" fill="rgb(50, 49, 63)" stroke="none" stroke-width="1px">-1</text><text x="0" y="160.2" dx="0em" dy="0.3em" style="text-anchor: end; visibility: inherit; font-family: &quot;Helvetica Neue&quot;, sans-serif; font-size: 12px; font-weight: 200;" fill="rgb(50, 49, 63)" stroke="none" stroke-width="1px">0</text><text x="0" y="142.4" dx="0em" dy="0.3em" style="text-anchor: end; visibility: hidden; font-family: &quot;Helvetica Neue&quot;, sans-serif; font-size: 12px; font-weight: 200;" fill="rgb(50, 49, 63)" stroke="none" stroke-width="1px">1</text><text x="0" y="124.6" dx="0em" dy="0.3em" style="text-anchor: end; visibility: inherit; font-family: &quot;Helvetica Neue&quot;, sans-serif; font-size: 12px; font-weight: 200;" fill="rgb(50, 49, 63)" stroke="none" stroke-width="1px">2</text><text x="0" y="106.8" dx="0em" dy="0.3em" style="text-anchor: end; visibility: hidden; font-family: &quot;Helvetica Neue&quot;, sans-serif; font-size: 12px; font-weight: 200;" fill="rgb(50, 49, 63)" stroke="none" stroke-width="1px">3</text><text x="0" y="89" dx="0em" dy="0.3em" style="text-anchor: end; visibility: inherit; font-family: &quot;Helvetica Neue&quot;, sans-serif; font-size: 12px; font-weight: 200;" fill="rgb(50, 49, 63)" stroke="none" stroke-width="1px">4</text><text x="0" y="71.2" dx="0em" dy="0.3em" style="text-anchor: end; visibility: hidden; font-family: &quot;Helvetica Neue&quot;, sans-serif; font-size: 12px; font-weight: 200;" fill="rgb(50, 49, 63)" stroke="none" stroke-width="1px">5</text><text x="0" y="53.400000000000006" dx="0em" dy="0.3em" style="text-anchor: end; visibility: inherit; font-family: &quot;Helvetica Neue&quot;, sans-serif; font-size: 12px; font-weight: 200;" fill="rgb(50, 49, 63)" stroke="none" stroke-width="1px">6</text><text x="0" y="35.599999999999994" dx="0em" dy="0.3em" style="text-anchor: end; visibility: hidden; font-family: &quot;Helvetica Neue&quot;, sans-serif; font-size: 12px; font-weight: 200;" fill="rgb(50, 49, 63)" stroke="none" stroke-width="1px">7</text><text x="0" y="17.799999999999983" dx="0em" dy="0.3em" style="text-anchor: end; visibility: inherit; font-family: &quot;Helvetica Neue&quot;, sans-serif; font-size: 12px; font-weight: 200;" fill="rgb(50, 49, 63)" stroke="none" stroke-width="1px">8</text><text x="0" y="0" dx="0em" dy="0.3em" style="text-anchor: end; visibility: hidden; font-family: &quot;Helvetica Neue&quot;, sans-serif; font-size: 12px; font-weight: 200;" fill="rgb(50, 49, 63)" stroke="none" stroke-width="1px">9</text></g><line x1="30" y1="0" x2="30" y2="178" fill="rgb(0, 0, 0)" stroke="rgb(204, 204, 204)" stroke-width="1px"></line></g></g><g transform="translate(30, 0)" clip-path="url(#clip_0)"><clipPath id="clip_0"><rect width="300" height="178"></rect></clipPath><g><g><g><line x1="0" y1="0" x2="0" y2="178" fill="rgb(0, 0, 0)" stroke="rgb(60, 60, 60)" stroke-width="1px" opacity="0.25"></line><line x1="33.33333333333333" y1="0" x2="33.33333333333333" y2="178" fill="rgb(0, 0, 0)" stroke="rgb(60, 60, 60)" stroke-width="1px" opacity="0.25"></line><line x1="66.66666666666666" y1="0" x2="66.66666666666666" y2="178" fill="rgb(0, 0, 0)" stroke="rgb(60, 60, 60)" stroke-width="1px" opacity="0.25"></line><line x1="100" y1="0" x2="100" y2="178" fill="rgb(0, 0, 0)" stroke="rgb(60, 60, 60)" stroke-width="1px" opacity="0.25"></line><line x1="133.33333333333331" y1="0" x2="133.33333333333331" y2="178" fill="rgb(0, 0, 0)" stroke="rgb(60, 60, 60)" stroke-width="1px" opacity="0.25"></line><line x1="166.66666666666669" y1="0" x2="166.66666666666669" y2="178" fill="rgb(0, 0, 0)" stroke="rgb(60, 60, 60)" stroke-width="1px" opacity="0.25"></line><line x1="200" y1="0" x2="200" y2="178" fill="rgb(0, 0, 0)" stroke="rgb(60, 60, 60)" stroke-width="1px" opacity="0.25"></line><line x1="233.33333333333334" y1="0" x2="233.33333333333334" y2="178" fill="rgb(0, 0, 0)" stroke="rgb(60, 60, 60)" stroke-width="1px" opacity="0.25"></line><line x1="266.66666666666663" y1="0" x2="266.66666666666663" y2="178" fill="rgb(0, 0, 0)" stroke="rgb(60, 60, 60)" stroke-width="1px" opacity="0.25"></line><line x1="300" y1="0" x2="300" y2="178" fill="rgb(0, 0, 0)" stroke="rgb(60, 60, 60)" stroke-width="1px" opacity="0.25"></line></g><g><line x1="0" y1="178" x2="300" y2="178" fill="rgb(0, 0, 0)" stroke="rgb(60, 60, 60)" stroke-width="1px" opacity="0.25"></line><line x1="0" y1="160.2" x2="300" y2="160.2" fill="rgb(0, 0, 0)" stroke="rgb(60, 60, 60)" stroke-width="1px" opacity="0.25"></line><line x1="0" y1="142.4" x2="300" y2="142.4" fill="rgb(0, 0, 0)" stroke="rgb(60, 60, 60)" stroke-width="1px" opacity="0.25"></line><line x1="0" y1="124.6" x2="300" y2="124.6" fill="rgb(0, 0, 0)" stroke="rgb(60, 60, 60)" stroke-width="1px" opacity="0.25"></line><line x1="0" y1="106.8" x2="300" y2="106.8" fill="rgb(0, 0, 0)" stroke="rgb(60, 60, 60)" stroke-width="1px" opacity="0.25"></line><line x1="0" y1="89" x2="300" y2="89" fill="rgb(0, 0, 0)" stroke="rgb(60, 60, 60)" stroke-width="1px" opacity="0.25"></line><line x1="0" y1="71.2" x2="300" y2="71.2" fill="rgb(0, 0, 0)" stroke="rgb(60, 60, 60)" stroke-width="1px" opacity="0.25"></line><line x1="0" y1="53.400000000000006" x2="300" y2="53.400000000000006" fill="rgb(0, 0, 0)" stroke="rgb(60, 60, 60)" stroke-width="1px" opacity="0.25"></line><line x1="0" y1="35.599999999999994" x2="300" y2="35.599999999999994" fill="rgb(0, 0, 0)" stroke="rgb(60, 60, 60)" stroke-width="1px" opacity="0.25"></line><line x1="0" y1="17.799999999999983" x2="300" y2="17.799999999999983" fill="rgb(0, 0, 0)" stroke="rgb(60, 60, 60)" stroke-width="1px" opacity="0.25"></line><line x1="0" y1="0" x2="300" y2="0" fill="rgb(0, 0, 0)" stroke="rgb(60, 60, 60)" stroke-width="1px" opacity="0.25"></line></g></g></g><g><g><line x1="0" y1="160.2" x2="300" y2="160.2" fill="rgb(0, 0, 0)" stroke="rgb(153, 153, 153)" stroke-width="1.5px"></line></g></g><g><g><line x1="33.33333333333333" y1="0" x2="33.33333333333333" y2="178" fill="rgb(0, 0, 0)" stroke="rgb(153, 153, 153)" stroke-width="1.5px"></line></g></g><g><g><g><g><g><path stroke="rgb(51, 187, 238)" stroke-width="2px" d="M33.516799999999996,24.044546222686762L33.529599999999995,23.064243233203882L33.64053333333334,24.022473868545205L33.73866666666667,36.44959020334133L34.050133333333335,32.4500973207102L34.31466666666667,35.87948947207627L34.336,42.73565319555033L34.4256,41.894386384720974L34.5024,44.59960326004389L34.65173333333333,41.190539950204254L34.660266666666665,43.589813704843124L34.6944,40.59028286260627L35.36,37.82060917049134L35.62453333333333,39.300871040043006L35.808,44.20435740552679L35.83786666666666,40.23355241734947L36.04266666666667,41.40608683354864L36.09813333333333,43.068834129378075L36.384,42.906235256395775L36.41813333333334,45.62703830069054L36.75946666666667,44.85281099195561L36.785066666666665,44.57029814158366L36.90453333333333,42.78266765903254L37.480533333333334,45.31264225411928L37.664,49.08014840124653L37.885866666666665,50.97336479220182L38.048,48.24521839937373L38.37226666666667,49.80569896873152L38.71786666666667,49.75859445848744L38.952533333333335,52.104525708731316L38.965333333333334,59.52086147428146L39.02506666666667,60.256474424498094L39.04213333333333,53.3459883591334L39.24693333333333,49.04884331197846L39.276799999999994,53.44481925398016L39.464533333333335,53.57838344371933L39.59253333333333,55.072746170450415L39.959466666666664,56.670257815624L40.096000000000004,58.521606483355015L40.55253333333333,55.074231433012145L40.736,52.268170830823294L40.748799999999996,50.925027101119085L41.205333333333336,52.11916245547424L41.346133333333334,49.60348622712118L41.5168,55.55523516187918L41.6448,58.680900878206245L42.02166666666666,58.12454329637315L42.27766666666667,62.99929838851682L42.665933333333335,65.01346182274906L42.71713333333333,62.03515671398668L42.85366666666667,59.36117489996107L42.98593333333333,59.850796813147014L43.177933333333335,62.58569060467764L43.5278,68.07634607973128L43.72833333333334,63.06324882520377L43.800866666666664,65.6389501572448L43.809400000000004,68.27491157536554L43.830733333333335,64.02428662112209L43.937400000000004,64.53908544618403L43.94166666666667,65.35867313050345L43.992866666666664,60.54299135388787L44.0142,67.17412832368538L44.137933333333336,68.95662794941143L44.79073333333333,68.75619104882166L45.025400000000005,71.75856783974224L45.99393333333334,70.70202188365491L46.296866666666666,69.92857347412604L46.309666666666665,70.28023364593805L46.821666666666665,70.75601887256036L47.11606666666667,72.67312498778182L47.184333333333335,72.96098047667789L47.1886,73.2207707963827L47.43606666666666,73.37054742350833L48.18273333333334,65.5743677912632L48.77153333333334,70.08725514283654L48.78006666666667,72.13419962806033L48.9934,71.720196404949L49.29633333333334,72.0131774132819L49.6078,74.63236136587686L49.63766666666666,79.74712380499975L50.0942,80.95202432114681L50.21366666666666,79.04710776590586L50.555,75.98523453106452L50.81666666666667,73.6463753988145L51.2348,73.89835861026039L51.388400000000004,76.09075245558493L51.75106666666667,79.841486843224L52.1052,74.56320051657893L52.497733333333336,76.123029639171L52.57026666666667,75.50605800261881L52.659866666666666,76.95128231591455L53.2316,82.86057327596231L53.248666666666665,84.8129078388684L53.2828,84.61023119929271L53.76066666666667,85.10489005471966L53.8204,82.324143291865L53.982533333333336,81.24182194313659L54.21293333333333,79.90813706541807L54.541466666666665,83.75145252123326L54.87853333333334,87.14176262602122L54.88706666666667,87.97160327187127L55.117466666666665,89.98808306068746L55.23693333333333,94.67971772200208L56.13720000000001,92.79384450344051L56.196933333333334,89.27561288492562L56.4572,85.2640467012923L57.0076,88.58204971343285L57.562266666666666,90.42572740191225L57.75,92.63009998484853L58.11266666666667,91.21514785101654L58.3516,91.03694433576251L58.38146666666667,87.9920536101245L58.535066666666665,91.28276176812548L58.889199999999995,84.22923286653936L59.48793333333334,90.70089636741507L59.782333333333334,95.58786562501447L59.863400000000006,91.7883018029872L60.16206666666667,96.13639565546175L60.260200000000005,92.06298649453437L60.53326666666666,95.37373496617863L61.14766666666667,93.88559748605482L61.37806666666667,94.49478351757284L61.501799999999996,91.90496577552172L61.898599999999995,96.64462594587333L61.9114,100.45063031911091L61.9626,94.24690838098071L62.57273333333333,92.17254886769976L63.0506,90.0163031014426L63.682066666666664,88.74792707876107L63.857,92.9838795001253L64.5226,97.9951174339619L64.82553333333334,101.05143685823481L65.11566666666667,99.58065909675241L65.15833333333333,97.01548017103362L65.17113333333333,96.65232177876764L65.23513333333334,96.1794595879515L65.37593333333334,96.19151150716543L66.15246666666667,91.77992647369624L66.5578,98.536886891603L66.60046666666666,95.79065565638513L66.7498,93.65520340664848L67.42393333333334,94.37445102729596L67.74393333333333,95.09042417167542L68.22746666666667,99.7010192201073L68.4024,99.16141654762833L69.00826666666667,100.86226370878941L69.0296,99.6398799309011L69.068,95.28531105332824L69.4648,93.5148213136986L69.58426666666666,92.74824577741596L69.62693333333334,93.15803861482604L70.02373333333334,95.89287164606847L70.1688,97.84633616207957L71.2056,99.16310981034587L71.32933333333334,101.35245305966943L71.41893333333333,98.27435593766934L71.44879999999999,102.87745984174589L71.69626666666667,101.8443639360534L71.96079999999999,97.23157081143061L72.83546666666666,99.38604369840623L73.0744,97.13377103258134L73.21093333333333,96.58875434547043L73.58213333333333,94.97231480210647L73.72293333333333,97.4402858920671L74.08986666666667,100.32790845082864L74.14533333333333,105.42549232391515L74.52933333333333,105.93690721838475L74.62746666666666,104.29281724362849L74.70426666666667,107.68307025950718L75.32293333333332,103.55636288476924L75.596,106.33703676314914L76.24026666666666,99.6534817853675L76.3512,103.65804589266214L77.16753333333334,101.19725505634925L77.19739999999999,98.31387614324558L77.69233333333334,102.53181605765145L78.03366666666668,108.11738862293316L78.21713333333334,102.6701364284596L78.57979999999999,100.39500914131648L78.71206666666667,100.5258052665892L78.78033333333333,104.12140137665885L79.02353333333335,104.75299116321455L79.2198,103.18372558324366L79.22406666666666,100.53023760061758L79.31793333333334,103.46881532038033L79.5782,102.19686517336834L79.6166,101.04272439729492L79.83846666666666,105.2676338830669L79.85126666666667,101.7100226210999L80.0134,105.62745009228274L80.11153333333334,102.83249561765602L80.14566666666667,103.25999248015172L80.34193333333334,98.50499519817404L80.69180000000001,105.05477600760682L80.77286666666666,101.06428310792103L81.10140000000001,95.68818995905193L81.36593333333333,102.68867121191188L82.04433333333334,100.8608161762438L82.27046666666666,99.90647416085494L82.3558,97.96543929082449L82.48806666666667,104.19452127636848L82.52646666666666,105.039962754377L82.67153333333334,108.0324249182512L83.0214,109.23920543160258L83.17926666666668,112.58532501677405L83.49499999999999,109.77407373320897L83.98140000000001,106.7708702882042L84.391,103.46578309058607L84.41233333333332,102.98933002662339L84.56593333333333,99.49934920615956L84.6982,100.34862056342962L85.11206666666666,106.11907290797356L85.223,105.78848762143208L85.30833333333334,107.00662177818151L85.75773333333333,106.33985624561986L86.2484,109.73012258678841L86.47453333333333,113.22455746930937L87.38333333333334,115.79647705437006L88.26226666666666,109.72628285814082L88.5268,112.77800734000657L88.8596,111.58368573640139L88.93213333333334,111.3254626015088L89.04733333333333,109.0421391331709L89.13693333333333,109.34121758482198L89.18813333333333,108.92506906712853L89.25213333333333,110.43348168685915L89.80680000000001,106.94425271603394L90.50226666666667,109.17399225385742L90.51933333333334,106.72100954146241L90.93746666666667,109.08119302803907L91.11666666666667,111.41005015977998L91.33426666666668,107.33691865330208L91.4324,106.59851942852298L91.68413333333334,111.41069624421095L92.24306666666668,109.63428370950875L92.55879999999999,103.06336906908903L93.39506666666666,103.6015152082381L93.99380000000001,105.20175442370994L94.2754,105.61735928340688L94.30526666666667,105.5742597739931L94.41619999999999,103.63626183516003L94.49300000000001,104.87894046214949L94.74473333333333,105.45199606363613L94.95806666666667,109.81064629998588L95.7474,111.16349795607796L95.773,111.66635507552667L95.901,111.10423183804062L95.9394,112.7642803976852L95.98206666666667,106.20896115242947L96.3746,103.68007508241837L96.413,110.04780447556797L96.5026,109.44872792765035L96.77566666666667,106.39541458251793L96.85673333333334,106.91325689770413L97.70153333333333,108.91685130964298L98.08553333333333,112.44174893123257L98.45246666666667,113.52923087729422L98.69993333333333,110.5189628389681L99.33566666666667,112.21240523023633L99.3442,113.71193692781465L99.48073333333333,114.15157499848567L99.61300000000001,114.71193170868612L100.47486666666667,110.88491460992847L100.57726666666666,110.70592751809332L100.61566666666667,108.72956547920927L100.85033333333334,107.03647399058953L101.55433333333333,109.12831627911935L101.98953333333333,112.66497350923186L102.07913333333333,107.25792005295733L102.64373333333333,107.54949463507639L102.95093333333334,107.93965863407318L103.0448,112.38276572716632L103.11733333333333,108.85743745143651L103.3136,106.84260246262215L103.736,104.08549210730351L104.5552,106.6844894629905L105.0288,107.3974875010365L105.03306666666667,106.80823561890803L105.23786666666666,99.72581474628379L105.41706666666667,104.50982623485523L106.1296,110.84208644144414L106.26186666666666,105.5259958452742L106.40693333333333,107.7536271015859L106.86773333333332,104.503691363338L107.00853333333333,108.44376692295276L107.09386666666667,109.86767370891693L107.19626666666667,110.70226010913922L107.20053333333333,112.20806443950697L107.29440000000001,106.61390944159724L107.576,108.40952928922593L107.74239999999999,109.90633624113809L107.78506666666668,107.10904836486108L108.1648,111.23791681188538L108.22453333333333,111.99570426498768L108.34826666666666,111.69135215493988L108.3824,113.83961138375372L108.50613333333334,111.0633670499788L108.92853333333333,109.69073133533395L109.91413333333334,106.4346222118449L110.03359999999999,106.9292223284192L110.19146666666667,106.10095455107374L110.3408,108.5842838779526L110.392,102.8985155782364L110.66506666666668,108.58980711229218L111.24106666666667,110.15999232249006L111.4686,110.76909357617225L112.03606666666666,107.7380410379763L112.04033333333334,107.4129614750502L112.63766666666668,109.56200467586264L113.15393333333333,111.33621075534668L113.1838,107.79948865642456L113.71713333333334,110.2700436882395L114.19926666666667,112.35442634416928L114.3998,111.43954623695201L114.58326666666667,111.03232713792316L114.8734,114.31721587809082L115.09953333333334,113.54920182604882L115.53473333333334,110.76390734898622L116.61846666666666,111.79202002279504L116.64406666666667,115.00397177930202L117.10913333333333,112.73285071131902L117.16886666666667,111.54170772598575L117.4974,110.77351886013979L117.523,115.19429003465076L117.88993333333333,117.42149004023015L117.98806666666667,109.90312927651846L118.28673333333333,112.70453240447308L118.3806,112.71131607278029L118.5214,114.08052949657343L118.6238,112.20927656024875L118.79446666666666,110.02330269533503L118.87126666666667,108.8003622324354L118.89686666666667,111.12529224104205L118.90966666666668,109.60978857246947L119.23393333333333,106.51595573167747L119.2382,108.20640502775161L119.43873333333333,107.97200131895809L119.571,111.3717423181693L119.6862,108.67247204190255L119.699,107.38344133976554L119.72033333333334,111.44913310219917L120.0204,109.93596820360466L120.27640000000001,109.3772159548166L120.5196,110.6079404241778L120.7116,112.19947737019882L120.88653333333333,109.55293372131362L120.942,111.35473405633553L120.94626666666667,108.08454659530034L121.04013333333333,108.44833591311283L121.10839999999999,115.35371636110011L121.582,113.33362231467643L121.6716,114.09346432813692L121.966,106.69238751488142L121.9788,107.1711894020868L121.98306666666666,110.82912519368129L122.18786666666666,114.30744101281522L122.29026666666667,114.47310009047722L122.85346666666668,114.699189758571L123.25026666666666,115.63711467759134L123.52333333333334,108.39275964365197L123.80066666666666,112.74243160406228L123.8988,112.38514825534507L124.2572,112.87558339137843L124.27,110.11248784839516L124.29133333333333,108.51471156584863L124.57719999999999,111.45168346111562L124.65400000000001,115.64269705024114L124.974,114.3197539723322L125.1404,107.49012562253506L125.81453333333334,108.07616441618461L125.998,106.79903853160774L126.30093333333333,110.38145379676006L126.41186666666667,113.57898978980529L126.50146666666667,112.67295204038709L126.52706666666667,112.58756680986458L127.2012,115.33472743333085L128.22093333333333,112.6321890181345L128.2764,114.98031978523983L128.42146666666667,114.86370536754282L128.5836,113.1811498371944L128.7002,114.86674860287815L129.1866,115.51206385594075L129.33593333333334,112.34265148342529L129.4938,112.71819663346338L129.88206666666667,111.04536812961416L130.43673333333334,108.33266216194819L130.75673333333333,112.36109681651706L131.14073333333334,110.63459588364192L131.1535333333333,114.3449755172457L131.7978,114.88763037565505L132.0282,111.05803001906368L132.07086666666666,109.98383307567772L132.21593333333334,110.54065398282728L132.2586,107.47274169389559L132.36953333333332,104.10350528397652L132.56153333333333,105.72774863623674L132.65966666666665,110.80611695517955L132.97966666666667,115.16409398597393L133.06073333333333,115.97001353193471L133.26126666666667,116.45668194347112L133.7434,114.27710338147574L133.95246666666665,115.20652081794793L134.29806666666667,116.53324869529757L134.345,120.44787911448691L134.43033333333332,119.65134099408276L134.7418,120.67963203480414L135.44153333333335,118.73756298476799L136.04313333333334,112.96333162936176L136.20953333333333,114.65413947673204L136.33326666666667,114.3533037696574L136.70446666666666,113.7788507768091L136.90926666666667,114.57425043037989L136.9178,117.78551465184366L137.07993333333334,119.2784633702688L137.17806666666667,113.20929951111391L137.47813333333335,112.71774675989101L138.07973333333334,113.72900954809158L138.3528,112.15194445566159L138.77093333333335,113.60986380169284L138.80506666666668,109.27941029303963L139.54746666666665,117.00872458120404L139.68826666666666,118.6085164374126L140.004,115.5913805953272L140.1704,117.9508572573428L140.53733333333332,116.24419969528702L140.95546666666667,115.97354637509459L141.01093333333333,116.56943883732481L141.04933333333332,119.17691287896349L141.3864,114.56610732973405L141.63813333333334,114.89446231425278L142.12453333333335,115.23653860986514L142.18853333333334,118.82335253298452L142.5256,117.76729006135565L142.8968,115.54271103479924L143.4344,112.73489248239078L143.58373333333333,110.32216706444667L143.89946666666665,112.43951579195169L144.42853333333332,115.84295569099133L144.51813333333334,112.57925222776619L144.6248,112.84721163786821L144.8978666666667,111.20357835219724L144.9576,110.8291392751123L145.4824,112.35527813599022L145.52933333333334,113.38128799060291L145.95313333333334,113.32747568285052L146.239,119.79833016869775L147.09233333333333,116.36105510042519L147.6342,122.9531077554608L147.6384666666667,120.36670065944102L147.7622,120.51658112183038L147.77073333333334,123.86432940468089L148.19313333333332,120.80669571104583L149.1062,119.81324670519196L149.1318,118.71308252934077L149.1574,117.34047204568063L149.17446666666666,118.9374148649816L149.17873333333333,118.24519963996676L149.6694,118.20208507023494L150.655,112.27760844494247L151.07313333333335,113.02180234113541L151.11579999999998,113.72218413066392L151.14566666666667,115.68152714557364L151.22246666666666,116.58927128307172L151.6534,118.01465768332571L152.02033333333335,115.67023488709503L152.4086,113.72239857691034L152.4171333333333,116.21807514773312L152.5536666666667,115.24659547773899L152.63046666666665,116.48152208309116L153.83793333333335,117.7725371168896L153.94886666666665,119.58863972466256L154.1366,121.48001052165668L154.6329333333333,117.07797774091148L154.6884,118.73263499507179L155.08093333333332,119.53930254321617L155.20466666666667,116.69885206425978L155.37106666666668,114.45436674240108L156.90279999999998,116.59482051541136L157.01373333333333,117.14243159299926L157.10760000000002,115.57149819377562L157.18866666666668,117.9114548244685L157.29533333333333,116.126029007352L157.3636,118.24058810753621L157.41479999999999,118.47793373991846L157.88840000000002,120.05672841030238L158.15293333333332,113.93011210416483L159.0404,113.23568340095716L159.07026666666667,118.15864253492853L159.10866666666666,118.62916781694712L159.32199999999997,122.10319143647564L159.3348,116.30656265088686L159.42440000000002,116.99593134205799L159.55666666666667,117.5851053826884L159.63773333333333,116.89197097497437L160.218,113.70001273558887L160.5636,112.43494479421588L160.56786666666667,108.82275810577757L160.71293333333332,110.43279745303563L161.29746666666668,113.97896855666025L161.31879999999998,115.53898998256793L161.42973333333333,115.02604526136082L161.626,113.48039980085946L161.69,112.20818777175103L162.03986666666665,108.73079071099374L162.33426666666668,115.22503156694658L162.50920000000002,115.78565649052197L162.69266666666664,116.3864097634538L163.25586666666666,118.28439016578102L163.29993333333334,116.6818019308895L163.73513333333332,120.03515194405617L163.9058,121.71329482167661L164.30686666666665,122.58612239700378L164.3666,120.57078077996863L164.4434,119.30129106167014L165.78313333333332,119.07894991471204L166.0092666666667,115.80719386240145L167.29353333333336,113.70253821075141L167.4514,115.47700426495183L168.53086666666667,115.3454595131642L168.6418,118.20404633778134L169.00873333333334,116.06350219308018L169.28606666666667,112.2501784948032L169.31593333333333,111.46491144105916L169.35006666666666,115.7829027819939L169.55486666666667,117.67377117206499L169.59326666666666,115.92630337554124L169.845,116.76788441942875L169.9004666666667,117.36806166056837L170.57033333333334,120.15630586078194L170.71113333333332,121.93081621605413L170.89033333333333,121.08765350984488L171.68393333333336,121.3556475258288L172.08213333333333,120.52551498034103L172.1376,118.59360296022001L172.43200000000002,120.02535885865154L172.62826666666666,118.56365754541554L172.83733333333333,119.8367616506624L173.07626666666667,120.64518624378488L173.63946666666666,116.23272015233783L173.6736,114.10621561038462L174.10026666666667,114.67685306923372L174.15146666666666,112.86014424357882L174.23680000000002,116.41691818829817L174.74026666666666,120.75366669056679L174.85546666666667,120.39861759399095L174.86399999999998,121.98944197210503L175.248,117.68632671661872L175.54666666666665,118.9243662585479L175.66186666666667,117.54829304156672L175.69173333333333,115.98141135655624L175.81119999999999,115.85780601193179L176.39146666666667,112.2642004376034L176.78400000000002,116.36795624049782L177.19786666666667,115.73332756967712L177.23626666666667,116.93402472860436L177.2874666666667,113.20183560208571L177.36853333333335,113.76388967607076L177.44106666666667,115.06252745493444L177.67146666666667,117.0296182567131L177.72266666666667,115.88271306599685L177.82933333333332,118.95031501916355L177.9872,116.6154499367911L178.43093333333331,119.64742647147406L178.512,120.4351308973803L178.54186666666666,121.76865431738935L178.73813333333334,117.61600616617824L178.96,116.2186025133361L178.9728,119.40085238400874L179.12213333333335,117.87013182988034L179.89866666666666,116.75381383150975L179.90293333333335,113.21799617320394L179.99253333333334,115.92905986136256L180.2272,112.73131914511953L180.5984,116.1198731444814L180.5998,115.81544843808044L180.76193333333333,116.23824512180823L180.91126666666668,114.74246018419943L180.94966666666664,119.11411351972987L181.69633333333334,118.95606771358351L182.10166666666666,115.67373828440012L182.95926666666668,115.56934665411174L183.11286666666666,117.08668371420777L183.3774,118.85059053171679L183.70593333333335,114.84026776354912L184.043,117.37690399766804L184.1326,118.18523640800024L184.16673333333333,116.19231932740513L184.22220000000002,120.21699094641866L184.23073333333332,119.27223268430627L184.6744666666667,120.06985551405666L184.683,120.08389901094864L185.05419999999998,120.8609917198016L185.067,122.78195449080431L185.9118,123.46494837502458L185.9416666666667,124.09813421666513L186.2232666666667,118.54066432058747L186.24460000000002,114.5537361701723L186.68833333333333,109.97012607099987L186.7608666666667,110.77499131108746L187.04673333333335,114.58006299343958L187.13206666666667,118.08500738148246L187.58859999999999,117.86930204394073L187.87446666666665,117.48356553651459L187.93846666666667,118.52343022309284L188.00673333333333,118.35570791412914L188.06220000000002,121.38707794099763L188.21153333333334,119.06638941138812L188.32246666666666,115.02299213987486L189.31373333333335,120.72908755649266L189.56973333333332,121.26847363298617L189.69773333333333,120.2142237137883L189.77880000000002,117.84741568274075L190.1585333333333,119.41870919052823L190.32493333333335,116.44272882928887L190.342,115.59020551198984L190.3804,115.36164093109527L190.51266666666666,114.71196723993157L190.75586666666666,116.12900792727193L191.3788,118.0305937288363L191.87373333333332,116.1280422114229L192.01453333333333,114.71130946534251L192.4796,116.7087137034975L193.09400000000002,115.42108134099499L193.23906666666667,110.63800528805646L194.41240000000002,112.56518102622744L194.59586666666664,117.21392266831825L194.89026666666666,115.27364048529881L196.23853333333332,119.32012879114876L196.4732,113.17100088156182L196.5372,114.96992650244783L196.97666666666666,114.50011170514912L197.2924,116.49023959999377L197.36066666666665,116.05024368980584L197.4076,116.27076488148603L197.55266666666668,117.19196530706544L197.894,119.88419743375098L198.1514,117.87336658952304L198.15566666666666,117.44760081003707L198.40313333333333,117.55586650866628L198.48846666666665,117.82006623088338L198.67193333333333,115.39963193976293L199.00046666666668,115.45208465244419L199.60206666666667,116.22316439620283L199.70020000000002,118.58312246126907L199.70446666666666,117.6155708034216L200.28473333333335,117.58588823553197L200.69433333333333,116.94299004123374L200.94606666666667,117.64473107842065L200.993,117.10845634572183L202.20473333333334,116.86930739660545L202.67833333333334,120.40086542474916L202.7978,118.28279231850917L203.0154,119.22624206819901L203.42926666666665,117.9093917481826L203.56153333333333,116.36856473640955L203.58286666666666,119.76206270430302L203.65540000000001,120.24824779256471L204.0351333333333,120.44242836609058L204.90553333333335,122.65461215004072L205.21273333333332,120.30677741423096L206.0319333333333,119.9444743541172L206.08313333333334,115.06372698231286L206.21966666666665,118.4152490525469L206.33913333333334,121.30619348937421L206.70746666666668,119.49927437456935L206.7501333333333,120.663491245225L206.77573333333333,119.83398896939453L206.7928,120.22534716657935L206.92506666666668,120.45985143501841L206.93359999999998,117.86629191112091L206.99333333333334,113.43864628238423L207.0189333333333,119.60743842937316L207.3304,118.93664269934754L208.38426666666666,116.35690688425696L208.75973333333334,117.94357013305661L208.8706666666667,115.14992168188476L209.25466666666668,116.30529770517578L209.3698666666667,119.95626148977416L209.66853333333333,116.0322538268479L209.9586666666667,115.63868819546177L210.30853333333334,115.37553585810349L210.51333333333332,117.50529727246096L210.5816,119.71336885038454L210.812,122.61848430003784L211.5074666666667,120.2174537239436L211.54160000000002,118.88034968721651L211.81466666666665,123.81960307328572L211.92986666666667,121.96075890283984L212.50586666666666,122.7671545757127L212.53573333333333,118.96198669989539L213.052,121.75162353467724L213.15439999999998,120.7043826672541L213.19706666666667,120.5341058119003L213.25680000000003,118.83740106724882L213.52133333333333,119.68929523171892L213.92666666666668,119.17667234624571L214.40026666666665,120.3652104657003L214.47706666666667,117.31151521450928L214.51973333333333,119.77975664762648L214.60933333333335,121.08172983543868L215.0744,122.08271805415629L215.37019999999998,121.5185539053087L215.78833333333333,118.55677511967448L216.44966666666667,120.71065604851978L216.59046666666666,120.8961594829937L216.663,120.27632075846077L216.82940000000002,121.46207369744707L217.9302,122.06719493257958L218.76646666666667,122.86533706300233L218.9542,121.60731609888538L219.10353333333333,120.88694152014055L219.23153333333335,120.08435931668637L219.33393333333333,123.24183813372827L219.47046666666665,120.81666341566786L219.77766666666665,120.80287383522835L219.89286666666666,118.94115261153131L219.90993333333333,119.13377390334455L219.97393333333332,120.99721903103261L220.08486666666667,119.5665176445107L220.17873333333335,121.77674208008409L220.90833333333333,122.16320162012076L220.9254,124.0390839969748L220.98086666666669,119.49042545769416L221.3222,118.32421338924053L221.33926666666667,119.63602385263611L221.49286666666666,118.88758988226037L221.86406666666667,115.59781466391433L221.89393333333334,117.58396641294212L222.08166666666668,118.87521310734778L222.3078,118.9275015597822L222.4742,120.500239510851L222.73446666666666,122.90864480705078L223.1483333333333,119.92570762855419L223.31046666666666,119.30107246531611L223.50673333333333,120.58556569751242L223.511,119.00492050371253L223.76273333333333,119.79707236600925L224.11826666666667,118.01282872386581L224.22066666666666,119.9548088218439L224.42973333333336,122.14353643331935L224.48946666666666,122.25850732370621L225.12093333333334,119.90789232757334L225.24893333333335,124.75279121700909L225.5006666666667,127.50526457014075L225.71826666666666,124.04905527223582L226.5972,123.88035353535076L226.6356,120.50603038140332L226.86173333333332,118.4714074210417L227.43773333333334,120.51679281688284L227.59133333333332,122.33663876233427L228.0308,118.25837335215765L228.082,114.20965074316715L228.56413333333333,115.46731170902284L228.85426666666666,119.95558702999134L229.0036,119.08952321561443L229.6436,117.82273124427954L229.682,119.78729648811435L229.7972,118.6514377607275L229.9252,118.72647039493137L230.07026666666667,118.34140286684163L230.26226666666668,116.58840884351807L230.2964,118.89981997957275L230.41586666666666,116.61437097639111L230.898,118.43628688484591L230.96626666666666,121.23460545915461L231.2308,121.32056029545126L231.30333333333334,119.27091783468043L231.6702666666667,120.38157358517715L231.70866666666666,119.08705167979281L232.5108,117.49353307849336L232.72979999999998,116.65552998045783L233.95860000000002,121.40295285498917L234.04819999999998,119.89617261478793L234.6498,118.4974514173835L234.83326666666665,119.38685792013226L235.0594,121.24070945575366L235.08926666666667,118.5067624616297L235.1746,117.44736893938017L235.28553333333332,119.092846717632L235.66953333333333,119.58441597354185L235.8914,120.50965593178137L236.1474,118.01014067363181L236.17726666666667,120.73331251163148L236.301,121.49098096858778L236.52713333333332,122.04604077918124L236.54420000000002,122.59742617954487L236.59966666666665,117.13540290087266L236.6594,120.90842681819083L236.7618,121.33324994620014L236.813,117.25788831458289L236.94953333333333,117.65826490250706L236.9794,118.80009524063755L237.03913333333335,118.15230518362813L237.52126666666666,120.45468404401477L237.5682,123.01223177498065L237.59380000000002,121.40565563908505L237.76873333333333,122.46398290676646L237.7858,126.24649734904034L237.84553333333335,123.34027019744912L237.94366666666667,126.89429740670799L238.39593333333335,119.48538810589002L238.5794,123.50075474845224L238.84393333333335,123.81939446131499L238.9122,126.92613003730841L239.04020000000003,121.92044059562723L239.86793333333333,117.69149790840171L240.05993333333333,120.8277142395784L240.26473333333334,121.37727383793649L240.29886666666667,121.82225390923772L240.75966666666665,122.16801291377993L240.845,119.04498934311658L241.66986666666665,118.78175558783406L242.25866666666664,119.38579533420679L243.496,121.87235473348306L243.7264,123.65280601712232L243.83306666666667,122.75563069660762L244.37066666666666,121.6195791320759L244.71626666666668,122.64972065429436L244.97653333333332,119.29271283233491L245.05759999999998,121.81653239300447L245.3093333333333,121.14902143699285L245.80426666666668,124.84461506022429L246.14133333333334,125.81683222659477L246.6277333333333,127.75670516138106L246.84106666666665,121.48573265340823L246.99893333333335,120.41743076483547L247.23786666666666,122.58397161388478L247.30613333333332,123.33302817478229L247.43413333333334,122.8219615658191L247.74560000000002,121.2027019715349L248.232,121.06477259969951L248.60746666666665,121.08006660089636L248.89759999999998,117.47687388387766L249.28586666666666,119.13194208697942L249.2944,121.3321276697902L249.32,119.67518793305086L250.09366666666665,123.30311563229756L250.77633333333333,122.41090275416492L250.9299333333333,122.51784618359636L251.4206,122.66487767017979L251.43766666666667,121.81334844659031L251.83446666666669,122.83165158885872L252.06913333333333,120.50834172998759L252.32513333333333,121.93055137893495L252.73046666666664,121.24056520999036L253.6008666666667,119.72812235200739L254.06593333333336,118.42123219874105L254.25366666666667,122.31579412881496L254.27073333333334,127.92213561692215L254.30486666666667,128.09392480467784L254.93633333333335,124.4191147781314L255.13686666666666,119.54371950011858L255.4184666666667,120.52848118890172L255.427,119.79349133937863L256.1438,118.98510897141281L256.37846666666667,114.43309895981304L256.4979333333333,114.58134226315588L256.63873333333333,114.38182861991746L256.7411333333333,117.05808810822975L256.7838,117.06529218454845L257.3086,117.49203225195222L257.3854,117.5378834594477L257.7054,116.19561328108244L257.8675333333333,119.8068834734865L258.04246666666666,120.34396193223643L258.47339999999997,119.59505429862409L258.55446666666666,118.94185889600796L258.99533333333335,120.58494615578104L259.1361333333333,119.19812948240906L259.4092,119.86276753624719L259.45186666666666,122.59354463506008L259.7889333333333,118.1058137851254L259.85293333333334,119.33130534871196L260.01079999999996,121.4524857543932L261.1073333333333,119.67839267867961L261.14146666666664,117.45043423544263L261.3932,121.66839631778535L261.45293333333336,123.88523386229596L262.1612,124.34802571242763L262.40866666666665,120.52892330709525L262.43853333333334,124.10038999690669L262.4556,118.47654705508981L262.47266666666667,117.3798327855136L262.9121333333333,119.51310875486529L263.0742666666667,116.35160787147996L263.2150666666667,115.09604315306376L263.262,118.51861946788806L263.7612,116.90202884320843L263.97026666666665,115.35573577668922L264.03426666666667,115.64769355646763L264.1238666666667,119.78225022430416L264.18786666666665,117.34454628631589L264.4438666666667,122.03787806513975L264.6913333333333,122.33807914544983L265.2332,116.27888878518249L265.65133333333335,120.1627022477025L266.1761333333333,121.10404419255461L266.3297333333333,122.32317644686822L266.4236,121.28418579060627L266.61133333333333,120.93856500601049L266.7308,120.06619980225132L267.10626666666667,123.36609973364571L267.34233333333333,122.47919292124212L267.6580666666667,119.10007516665517L267.8500666666667,120.29248025013959L268.75033333333334,117.63005239721511L269.2026,113.35087926242574L269.2154,116.96001829537047L269.3263333333333,118.2593148102301L269.4586,119.72304728686437L270.2223333333333,123.8569254389979L270.2436666666667,124.94004766414032L270.2778,126.07592508476654L270.969,121.25608929921196L271.19513333333333,123.4979231031478L271.3188666666667,121.67043772648218L271.6388666666667,119.34465742653872L272.03566666666666,123.39871284810462L272.0484666666667,123.25486390499925L272.5818,123.17422602122221L273.49060000000003,113.83859530893083L273.6314,118.31841803435753L273.8106,117.74999992873829L273.94713333333334,119.7489353515301L274.0367333333333,118.58008871183358L274.3055333333333,115.44773328844047L274.35673333333335,119.75490798797212L274.4164666666667,119.1115428152442L274.4463333333333,123.17985413686992L274.78766666666667,118.5938406742606L275.5514,120.12347672206127L275.6922,122.7333113349793L275.8458,122.54794891341434L276.45306666666664,123.3342176131243L276.6109333333333,120.88335767816511L277.4685333333333,121.07450788158778L277.5709333333333,119.55537489496828L277.7330666666667,119.63099101211526L277.75866666666667,119.81959743395981L277.8525333333333,122.92900306639396L278.15546666666665,123.41178939019036L278.4584,116.43689865395065L278.5224,120.89241030290506L278.66746666666666,120.76524774119127L278.91066666666666,121.74271191528362L279.3842666666667,124.10747760159326L279.7,122.04964719785781L280.1693333333333,126.62729293449839L281.108,124.02168015446735L281.98266666666666,122.80128861788793L282.20026666666666,123.33715363337924L282.60133333333334,127.00867332931954L283.0962666666667,124.01320753763079L283.33093333333335,125.42425882738804L283.45893333333333,124.10517110301242L283.476,121.35263166113606L283.6552,123.86133277704663L283.7917333333333,123.76188049966305L283.9069333333333,124.93586937340622L283.97946666666667,121.06883424611404L284.04346666666663,121.68864090258786L284.08613333333335,121.00207457908934L284.4445333333333,120.17577538710205L285.0475333333333,120.34535018099169L285.1158,120.39385000880253L285.1286,121.72874202737624L285.1414,125.554415626582L285.2352666666667,122.97322282031566L285.72593333333333,122.4979721977436L286.1142,120.64942287171623L286.3147333333333,118.79658560016597L286.831,117.82473339592721L287.4454,119.6919179222304L287.6502,119.19660316117516L287.71846666666664,118.43086263065285L287.84646666666663,119.73230061367003L288.05553333333336,119.63798632523327L288.13233333333335,121.36364869058673L288.1920666666667,123.21823067057457L288.47793333333334,123.99483038537699L288.66566666666665,125.87312420817015L288.78086666666667,125.48446778662085L289.2886,126.5271791613524L289.6214,124.30409234025626L290.01820000000004,119.31203414713471L290.0438,124.22931458541828L290.1376666666667,120.39796018832372L290.52166666666665,122.75319104333786L290.9526,125.07171096885244L291.2086,122.08891092350507L291.28113333333334,121.34302295333399L291.32806666666664,120.76296489886197L291.4006,119.15609530360551L291.7974,118.59368457168966L291.9766,118.390588260714L292.11740000000003,118.77115826190936L292.3179333333334,122.32434764612572L292.3947333333333,122.55640729373012L292.9707333333333,120.97712120118925L293.2153333333333,116.39479326667302" style="fill: none;" fill="none"></path></g></g></g></g><g opacity="0.2"><g><g><g><path stroke="rgb(51, 187, 238)" stroke-width="2px" d="M33.516799999999996,24.044546222686762L33.529599999999995,22.476061439514154L33.64053333333334,24.942375278472895L33.73866666666667,51.06387901306152L34.050133333333335,27.22835941314699L34.31466666666667,40.62357339859008L34.336,52.54007701873779L34.4256,40.66781129837037L34.5024,48.58927268981935L34.65173333333333,36.128478240966814L34.660266666666665,47.16696310043335L34.6944,36.10730991363525L35.36,33.67514209747313L35.62453333333333,41.51836385726929L35.808,51.553823089599604L35.83786666666666,34.28014545440672L36.04266666666667,43.164392280578596L36.09813333333333,45.562532901763916L36.384,42.662361717224115L36.41813333333334,49.70799417495729L36.75946666666667,43.69151248931885L36.785066666666665,44.14653816223145L36.90453333333333,40.101257228851324L37.480533333333334,49.10757417678835L37.664,54.73138084411622L37.885866666666665,53.813181304931646L38.048,44.153005790710466L38.37226666666667,52.146417427062985L38.71786666666667,49.68793773651123L38.952533333333335,55.623421287536615L38.965333333333334,70.64536266326904L39.02506666666667,61.3598937034607L39.04213333333333,42.98026008605959L39.24693333333333,42.60312604904175L39.276799999999994,60.03878297805787L39.464533333333335,53.77872972488403L39.59253333333333,57.31429023742676L39.959466666666664,59.066525268554685L40.096000000000004,61.298629474639895L40.55253333333333,49.90316886901857L40.736,48.05907993316649L40.748799999999996,48.910311508178694L41.205333333333336,53.910365486145025L41.346133333333334,45.82997188568115L41.5168,64.48285856246949L41.6448,63.36939945220948L42.02166666666666,57.290006923675534L42.27766666666667,70.31143102645873L42.665933333333335,68.03470697402955L42.71713333333333,57.567699050903315L42.85366666666667,55.35020217895507L42.98593333333333,60.58522968292236L43.177933333333335,66.68803129196166L43.5278,76.31232929229736L43.72833333333334,55.54360294342041L43.800866666666664,69.50250215530396L43.809400000000004,72.22885370254517L43.830733333333335,57.64834918975831L43.937400000000004,65.31128368377685L43.94166666666667,66.58805465698242L43.992866666666664,53.31946868896485L44.0142,77.12083377838135L44.137933333333336,71.63037738800048L44.79073333333333,68.45553569793701L45.025400000000005,76.26213302612305L45.99393333333334,69.11720294952393L46.296866666666666,68.76840085983277L46.309666666666665,70.80772390365601L46.821666666666665,71.4696967124939L47.11606666666667,75.54878416061402L47.184333333333335,73.39276371002197L47.1886,73.61045627593994L47.43606666666666,73.59521236419678L48.18273333333334,53.88009834289551L48.77153333333334,76.85658617019654L48.78006666666667,75.204616355896L48.9934,71.09919157028199L49.29633333333334,72.45264892578125L49.6078,78.56113729476928L49.63766666666666,87.41926746368408L50.0942,82.75937509536743L50.21366666666666,76.18973293304444L50.555,71.39242467880248L50.81666666666667,70.13808670043946L51.2348,74.2763334274292L51.388400000000004,79.37934322357178L51.75106666666667,85.46758842468262L52.1052,66.64577102661133L52.497733333333336,78.46277332305908L52.57026666666667,74.58060054779052L52.659866666666666,79.11911878585815L53.2316,91.72450971603394L53.248666666666665,87.74140968322754L53.2828,84.3062162399292L53.76066666666667,85.8468783378601L53.8204,78.15302314758301L53.982533333333336,79.61833992004395L54.21293333333333,77.90760974884033L54.541466666666665,89.51642570495606L54.87853333333334,92.22722778320313L54.88706666666667,89.21636424064637L55.117466666666665,93.01280274391173L55.23693333333333,101.717169713974L56.13720000000001,89.96503467559815L56.196933333333334,83.99826545715332L56.4572,79.24669742584229L57.0076,93.55905423164369L57.562266666666666,93.19124393463134L57.75,95.93665885925293L58.11266666666667,89.09271965026856L58.3516,90.76963906288147L58.38146666666667,83.42471752166747L58.535066666666665,96.21882400512696L58.889199999999995,73.64893951416016L59.48793333333334,100.40839161872863L59.782333333333334,102.91831951141357L59.863400000000006,86.08895606994629L60.16206666666667,102.65853643417358L60.260200000000005,85.95287275314331L60.53326666666666,100.33985767364503L61.14766666666667,91.65339126586913L61.37806666666667,95.40856256484984L61.501799999999996,88.02023916244507L61.898599999999995,103.75411620140075L61.9114,106.15963687896728L61.9626,84.9413254737854L62.57273333333333,89.06100959777832L63.0506,86.78193445205689L63.682066666666664,86.84536304473878L63.857,99.33780813217163L64.5226,105.5119743347168L64.82553333333334,105.63591599464417L65.11566666666667,97.3744924545288L65.15833333333333,93.16771178245544L65.17113333333333,96.10758419036866L65.23513333333334,95.4701663017273L65.37593333333334,96.20958938598632L66.15246666666667,85.16254892349244L66.5578,108.67232751846313L66.60046666666666,91.67130880355835L66.7498,90.45202503204347L67.42393333333334,95.45332245826721L67.74393333333333,96.16438388824463L68.22746666666667,106.61691179275512L68.4024,98.3520125389099L69.00826666666667,103.413534450531L69.0296,97.8063042640686L69.068,88.753457736969L69.4648,90.85908670425415L69.58426666666666,91.59838247299194L69.62693333333334,93.77272787094115L70.02373333333334,99.99512119293213L70.1688,100.77653293609619L71.2056,101.13827028274535L71.32933333333334,104.63646793365479L71.41893333333333,93.65721025466918L71.44879999999999,109.78211569786072L71.69626666666667,100.29472007751464L71.96079999999999,90.31238112449647L72.83546666666666,102.61775302886963L73.0744,93.755362033844L73.21093333333333,95.77122931480407L73.58213333333333,92.54765548706054L73.72293333333333,101.14224252700807L74.08986666666667,104.65934228897095L74.14533333333333,113.07186813354492L74.52933333333333,106.70402956008911L74.62746666666666,101.82668228149414L74.70426666666667,112.7684497833252L75.32293333333332,97.36630182266235L75.596,110.508047580719L76.24026666666666,89.62814931869507L76.3512,109.66489205360413L77.16753333333334,97.50606880187989L77.19739999999999,93.9888077735901L77.69233333333334,108.85872592926025L78.03366666666668,116.49574747085572L78.21713333333334,94.49925813674928L78.57979999999999,96.9823182106018L78.71206666666667,100.72199945449829L78.78033333333333,109.5147955417633L79.02353333333335,105.70037584304809L79.2198,100.82982721328734L79.22406666666666,96.55000562667847L79.31793333333334,107.87668190002442L79.5782,100.28893995285034L79.6166,99.31151323318481L79.83846666666666,111.60499811172485L79.85126666666667,96.37360572814941L80.0134,111.503591299057L80.11153333333334,98.64006390571593L80.14566666666667,103.90123777389526L80.34193333333334,91.37249927520752L80.69180000000001,114.87944722175598L80.77286666666666,95.07854375839234L81.10140000000001,87.62405023574829L81.36593333333333,113.18939309120178L82.04433333333334,98.1190336227417L82.27046666666666,98.47496113777161L82.3558,95.05388698577882L82.48806666666667,113.53814425468444L82.52646666666666,106.30812497138977L82.67153333333334,112.5211181640625L83.0214,111.04937620162964L83.17926666666668,117.60450439453125L83.49499999999999,105.55719680786133L83.98140000000001,102.26606512069702L84.391,98.50815229415893L84.41233333333332,102.27465043067933L84.56593333333333,94.26437797546386L84.6982,101.62252759933472L85.11206666666666,114.77475142478943L85.223,105.29260969161987L85.30833333333334,108.83382301330566L85.75773333333333,105.33970794677735L86.2484,114.81552209854127L86.47453333333333,118.46620979309083L87.38333333333334,119.65435643196106L88.26226666666666,100.620991563797L88.5268,117.35559406280518L88.8596,109.79220333099364L88.93213333333334,110.93812789916991L89.04733333333333,105.61715393066406L89.13693333333333,109.78983526229858L89.18813333333333,108.30084629058838L89.25213333333333,112.69610061645507L89.80680000000001,101.71040925979615L90.50226666666667,112.51860156059264L90.51933333333334,103.04153547286988L90.93746666666667,112.62146825790406L91.11666666666667,114.90333585739135L91.33426666666668,101.2272213935852L91.4324,105.49092059135437L91.68413333333334,118.62896146774293L92.24306666666668,106.96966490745545L92.55879999999999,93.20699710845948L93.39506666666666,104.40873441696168L93.99380000000001,107.60211324691772L94.2754,106.24076657295227L94.30526666666667,105.50961050987245L94.41619999999999,100.7292649269104L94.49300000000001,106.74295840263368L94.74473333333333,106.31157946586609L94.95806666666667,116.3486216545105L95.7474,113.19277544021607L95.773,112.4206407546997L95.901,110.26104698181153L95.9394,115.2543532371521L95.98206666666667,96.3759822845459L96.3746,99.88674597740173L96.413,119.59939856529236L96.5026,108.55011310577392L96.77566666666667,101.81544456481934L96.85673333333334,107.6900203704834L97.70153333333333,111.92224292755127L98.08553333333333,117.72909536361695L98.45246666666667,115.16045379638672L98.69993333333333,106.00356078147888L99.33566666666667,114.75256881713867L99.3442,115.96123447418213L99.48073333333333,114.81103210449218L99.61300000000001,115.55246677398682L100.47486666666667,105.14438896179199L100.57726666666666,110.43744688034057L100.61566666666667,105.76502242088317L100.85033333333334,104.49683675765992L101.55433333333333,112.26607971191406L101.98953333333333,117.96995935440063L102.07913333333333,99.14733986854553L102.64373333333333,107.986856508255L102.95093333333334,108.52490463256835L103.0448,119.04742636680604L103.11733333333333,103.56944503784179L103.3136,103.82034997940063L103.736,99.94982657432557L104.5552,110.582985496521L105.0288,108.46698455810547L105.03306666666667,105.92435779571532L105.23786666666666,89.10218343734742L105.41706666666667,111.6858434677124L106.1296,120.34047675132751L106.26186666666666,97.5518599510193L106.40693333333333,111.09507398605346L106.86773333333332,99.62878775596619L107.00853333333333,114.35388026237487L107.09386666666667,112.00353388786316L107.19626666666667,111.95413970947266L107.20053333333333,114.46677093505859L107.29440000000001,98.22267694473267L107.576,111.10295906066894L107.74239999999999,112.15154666900635L107.78506666666668,102.91311655044557L108.1648,117.43121948242188L108.22453333333333,113.13238544464112L108.34826666666666,111.23482398986816L108.3824,117.06200022697449L108.50613333333334,106.8990005493164L108.92853333333333,107.6317777633667L109.91413333333334,101.55045852661134L110.03359999999999,107.67112250328064L110.19146666666667,104.85855288505554L110.3408,112.30927786827088L110.392,94.36986312866212L110.66506666666668,117.12674441337586L111.24106666666667,112.51527013778686L111.4686,111.68274545669556L112.03606666666666,103.19146223068238L112.04033333333334,106.92534213066101L112.63766666666668,112.7855694770813L113.15393333333333,113.99751987457275L113.1838,102.49440550804138L113.71713333333334,113.9758762359619L114.19926666666667,115.48100032806397L114.3998,110.06722607612609L114.58326666666667,110.42149848937989L114.8734,119.24454898834229L115.09953333333334,112.39718074798584L115.53473333333334,106.58596563339233L116.61846666666666,113.33418903350831L116.64406666666667,119.8218994140625L117.10913333333333,109.32616910934449L117.16886666666667,109.75499324798584L117.4974,109.62123556137085L117.523,121.82544679641724L117.88993333333333,120.76229004859924L117.98806666666667,98.62558813095093L118.28673333333333,116.90663709640503L118.3806,112.72149157524109L118.5214,116.13434963226318L118.6238,109.40239715576172L118.79446666666666,106.74434189796447L118.87126666666667,106.96595153808595L118.89686666666667,114.61268725395203L118.90966666666668,107.3365330696106L119.23393333333333,101.8752064704895L119.2382,110.7420789718628L119.43873333333333,107.62039575576783L119.571,116.47135381698608L119.6862,104.62356662750244L119.699,105.44989528656005L119.72033333333334,117.54767074584962L120.0204,107.6662208557129L120.27640000000001,108.53908758163452L120.5196,112.45402712821961L120.7116,114.58678278923034L120.88653333333333,105.58311824798584L120.942,114.05743455886841L120.94626666666667,103.17926540374755L121.04013333333333,108.99401988983153L121.10839999999999,125.71178703308105L121.582,110.30348124504089L121.6716,115.23322734832763L121.966,95.59077229499816L121.9788,107.8893922328949L121.98306666666666,116.316028881073L122.18786666666666,119.52491474151611L122.29026666666667,114.72158870697021L122.85346666666668,115.03832426071168L123.25026666666666,117.04400205612183L123.52333333333334,97.52622709274293L123.80066666666666,119.26693954467774L123.8988,111.8492232322693L124.2572,113.61123609542847L124.27,105.96784453392029L124.29133333333333,106.1180471420288L124.57719999999999,115.85714130401611L124.65400000000001,121.92921743392944L124.974,112.33533935546875L125.1404,97.24568309783935L125.81453333333334,108.95522260665894L125.998,104.88334970474243L126.30093333333333,115.75507669448852L126.41186666666667,118.37529377937317L126.50146666666667,111.31389541625977L126.52706666666667,112.45948896408082L127.2012,119.45546836853028L128.22093333333333,108.57838139533997L128.2764,118.50251593589783L128.42146666666667,114.68878374099731L128.5836,110.65731654167176L128.7002,117.39514675140381L129.1866,116.48003673553467L129.33593333333334,107.5885329246521L129.4938,113.28151435852051L129.88206666666667,108.53612537384033L130.43673333333334,104.26360321044922L130.75673333333333,118.40374879837036L131.14073333333334,108.04484448432923L131.1535333333333,119.91054496765136L131.7978,115.70161266326905L132.0282,105.31362948417664L132.07086666666666,108.37253766059875L132.21593333333334,111.37588534355164L132.2586,102.87087326049804L132.36953333333332,99.0496506690979L132.56153333333333,108.16411366462707L132.65966666666665,118.42366943359374L132.97966666666667,121.70105953216553L133.06073333333333,117.17889285087585L133.26126666666667,117.18668456077576L133.7434,111.00773553848266L133.95246666666665,116.60064697265625L134.29806666666667,118.52334051132202L134.345,126.31982474327087L134.43033333333332,118.45653381347657L134.7418,122.22206859588623L135.44153333333335,115.82445940971374L136.04313333333334,104.30198459625244L136.20953333333333,117.19035124778748L136.33326666666667,113.90205020904541L136.70446666666666,112.91717128753662L136.90926666666667,115.76734991073609L136.9178,122.60241098403931L137.07993333333334,121.51788644790649L137.17806666666667,104.1055537223816L137.47813333333335,111.98041763305663L138.07973333333334,115.24590373039246L138.3528,109.7863468170166L138.77093333333335,115.79674282073975L138.80506666666668,102.78373003005981L139.54746666666665,128.6026960134506L139.68826666666666,121.00820422172546L140.004,111.06567683219909L140.1704,121.49007225036621L140.53733333333332,113.68421335220337L140.95546666666667,115.56756639480591L141.01093333333333,117.46327753067017L141.04933333333332,123.08812394142151L141.3864,107.64989900588989L141.63813333333334,115.38699479103089L142.12453333333335,115.7496530532837L142.18853333333334,124.20357341766358L142.5256,116.18319635391235L142.8968,112.2058424949646L143.4344,108.52316465377807L143.58373333333333,106.70307893753052L143.89946666666665,115.61553888320923L144.42853333333332,120.94811553955078L144.51813333333334,107.68369703292846L144.6248,113.24915075302124L144.8978666666667,108.7381284236908L144.9576,110.26748065948486L145.4824,114.64448642730713L145.52933333333334,114.92030277252198L145.95313333333334,113.24675722122193L146.239,129.50461189746858L147.09233333333333,111.20514249801636L147.6342,132.84118673801422L147.6384666666667,116.48709001541138L147.7622,120.74140181541443L147.77073333333334,128.8859518289566L148.19313333333332,116.22024517059326L149.1062,118.32307319641113L149.1318,117.06283626556396L149.1574,115.28155632019043L149.17446666666666,121.3328290939331L149.17873333333333,117.20687680244446L149.6694,118.13741321563721L150.655,103.39089350700378L151.07313333333335,114.13809318542481L151.11579999999998,114.77275681495667L151.14566666666667,118.62054166793823L151.22246666666666,117.95088748931884L151.6534,120.15273728370667L152.02033333333335,112.15360069274902L152.4086,110.8006441116333L152.4171333333333,119.96159000396729L152.5536666666667,113.7893759727478L152.63046666666665,118.33391199111938L153.83793333333335,119.70905966758728L153.94886666666665,122.31279363632203L154.1366,124.31706671714782L154.6329333333333,110.4749285697937L154.6884,121.21462087631225L155.08093333333332,120.74930386543274L155.20466666666667,112.4381763458252L155.37106666666668,111.08763875961303L156.90279999999998,119.80550117492676L157.01373333333333,117.9638482093811L157.10760000000002,113.21509809494019L157.18866666666668,121.42138977050782L157.29533333333333,113.44789028167725L157.3636,121.4124267578125L157.41479999999999,118.83395218849182L157.88840000000002,122.42492041587829L158.15293333333332,104.7401876449585L159.0404,112.19404034614563L159.07026666666667,125.54308123588562L159.10866666666666,119.33495573997497L159.32199999999997,127.31422686576843L159.3348,107.61161947250366L159.42440000000002,118.0299843788147L159.55666666666667,118.46886644363403L159.63773333333333,115.85226936340332L160.218,108.91207537651063L160.5636,110.53734288215638L160.56786666666667,103.40447807312012L160.71293333333332,112.84785647392273L161.29746666666668,119.29822521209717L161.31879999999998,117.87902212142944L161.42973333333333,114.25662817955018L161.626,111.16193161010743L161.69,110.29986972808838L162.03986666666665,103.51469511985779L162.33426666666668,124.96639285087585L162.50920000000002,116.626593875885L162.69266666666664,117.28753967285157L163.25586666666666,121.13136076927185L163.29993333333334,114.27791957855224L163.73513333333332,125.06517696380615L163.9058,124.2305091381073L164.30686666666665,123.89536375999451L164.3666,117.5477683544159L164.4434,117.39705648422242L165.78313333333332,118.7454381942749L166.0092666666667,110.89955978393554L167.29353333333336,110.54555473327638L167.4514,118.13870334625244L168.53086666666667,115.14814238548279L168.6418,122.49192657470704L169.00873333333334,112.85268597602844L169.28606666666667,106.5301929473877L169.31593333333333,110.28701086044312L169.35006666666666,122.259889793396L169.55486666666667,120.51007375717163L169.59326666666666,113.30510168075561L169.845,118.03025598526001L169.9004666666667,118.26832752227783L170.57033333333334,124.3386721611023L170.71113333333332,124.5925817489624L170.89033333333333,119.822909450531L171.68393333333336,121.75763854980468L172.08213333333333,119.28031616210937L172.1376,115.69573493003845L172.43200000000002,122.17299270629883L172.62826666666666,116.37110557556153L172.83733333333333,121.74641780853271L173.07626666666667,121.85782313346863L173.63946666666666,109.61402101516724L173.6736,110.91645879745484L174.10026666666667,115.53280925750732L174.15146666666666,110.13508100509644L174.23680000000002,121.75207910537719L174.74026666666666,127.25878944396973L174.85546666666667,119.8660439491272L174.86399999999998,124.37567853927612L175.248,111.23165383338927L175.54666666666665,120.78142557144164L175.66186666666667,115.48418321609498L175.69173333333333,113.63108882904054L175.81119999999999,115.67239799499512L176.39146666666667,106.87379207611083L176.78400000000002,122.52358994483947L177.19786666666667,114.78138456344604L177.23626666666667,118.73507046699524L177.2874666666667,107.60355191230774L177.36853333333335,114.60697078704834L177.44106666666667,117.01048412322999L177.67146666666667,119.9802544593811L177.72266666666667,114.16235527992248L177.82933333333332,123.55171794891358L177.9872,113.11315231323242L178.43093333333331,124.19539127349853L178.512,121.61668753623962L178.54186666666666,123.76893944740296L178.73813333333334,111.38703393936157L178.96,114.12249703407288L178.9728,124.1742271900177L179.12213333333335,115.57405099868774L179.89866666666666,115.07933683395386L179.90293333333335,107.91426968574524L179.99253333333334,119.99565539360046L180.2272,107.93470807075501L180.5984,121.20270414352417L180.5998,115.358811378479L180.76193333333333,116.8724401473999L180.91126666666668,112.49878277778625L180.94966666666664,125.6715935230255L181.69633333333334,118.71899900436401L182.10166666666666,110.750244140625L182.95926666666668,115.4127592086792L183.11286666666666,119.3626893043518L183.3774,121.49645075798034L183.70593333333335,108.8247836112976L184.043,121.18185834884643L184.1326,119.39773502349854L184.16673333333333,113.20294370651244L184.22220000000002,126.25399837493896L184.23073333333332,117.8550952911377L184.6744666666667,121.26628975868225L184.683,120.10496425628662L185.05419999999998,122.02663078308106L185.067,125.66339864730836L185.9118,124.48943920135498L185.9416666666667,125.04791297912598L186.2232666666667,110.20445947647094L186.24460000000002,108.57334394454956L186.68833333333333,103.09471092224122L186.7608666666667,111.98228917121888L187.04673333333335,120.28767051696778L187.13206666666667,123.34242396354675L187.58859999999999,117.54574403762817L187.87446666666665,116.90496077537537L187.93846666666667,120.0832272529602L188.00673333333333,118.1041244506836L188.06220000000002,125.93413298130035L188.21153333333334,115.58535661697388L188.32246666666666,108.95789623260498L189.31373333333335,129.28823068141938L189.56973333333332,122.07755274772644L189.69773333333333,118.63284883499145L189.77880000000002,114.29720363616943L190.1585333333333,121.77564945220948L190.32493333333335,111.97875828742981L190.342,114.31142053604125L190.3804,115.01879405975342L190.51266666666666,113.73745670318603L190.75586666666666,118.25456895828248L191.3788,120.88297243118286L191.87373333333332,113.27421493530274L192.01453333333333,112.58621034622193L192.4796,119.70482006072999L193.09400000000002,113.48963279724121L193.23906666666667,103.46339120864867L194.41240000000002,115.45594463348388L194.59586666666664,124.18703513145446L194.89026666666666,112.36321721076966L196.23853333333332,125.38986124992371L196.4732,103.9473090171814L196.5372,117.66831493377686L196.97666666666666,113.79538950920106L197.2924,119.47543144226074L197.36066666666665,115.39024982452392L197.4076,116.60154666900635L197.55266666666668,118.57376594543457L197.894,123.9225456237793L198.1514,114.85712032318115L198.15566666666666,116.8089521408081L198.40313333333333,117.71826505661011L198.48846666666665,118.21636581420898L198.67193333333333,111.76898050308228L199.00046666666668,115.53076372146606L199.60206666666667,117.37978401184083L199.70020000000002,122.1230595588684L199.70446666666666,116.16424331665038L200.28473333333335,117.54136438369751L200.69433333333333,115.97864274978637L200.94606666666667,118.69734263420105L200.993,116.30404424667358L202.20473333333334,116.5105839729309L202.67833333333334,125.69820246696472L202.7978,115.10568265914917L203.0154,120.64141669273377L203.42926666666665,115.93411626815796L203.56153333333333,114.05732421875L203.58286666666666,124.85230965614319L203.65540000000001,120.97752542495728L204.0351333333333,120.7336992263794L204.90553333333335,125.97288782596588L205.21273333333332,116.78502531051636L206.0319333333333,119.40101976394654L206.08313333333334,107.74260592460632L206.21966666666665,123.44253215789794L206.33913333333334,125.64261014461518L206.70746666666668,116.78889570236205L206.7501333333333,122.4098165512085L206.77573333333333,118.5897355556488L206.7928,120.81238446235656L206.92506666666668,120.811607837677L206.93359999999998,113.97595262527466L206.99333333333334,106.79717783927917L207.0189333333333,128.86062664985656L207.3304,117.93044910430908L208.38426666666666,112.48730316162109L208.75973333333334,120.3235650062561L208.8706666666667,110.95944900512696L209.25466666666668,118.03836174011231L209.3698666666667,125.43270716667175L209.66853333333333,110.1462423324585L209.9586666666667,115.04833974838257L210.30853333333334,114.98080735206604L210.51333333333332,120.6999393939972L210.5816,123.0254762172699L210.812,126.97615747451782L211.5074666666667,116.61590785980225L211.54160000000002,116.87469363212585L211.81466666666665,131.22848315238951L211.92986666666667,119.17249264717103L212.50586666666666,123.97674808502197L212.53573333333333,113.25423488616944L213.052,125.93607878684998L213.15439999999998,119.13352136611938L213.19706666666667,120.27869052886963L213.25680000000003,116.2923439502716L213.52133333333333,120.96713647842407L213.92666666666668,118.40773801803589L214.40026666666665,122.1480176448822L214.47706666666667,112.73097233772278L214.51973333333333,123.48211879730225L214.60933333333335,123.03468961715699L215.0744,123.58420038223267L215.37019999999998,120.67230768203736L215.78833333333333,114.11410694122314L216.44966666666667,123.94147744178773L216.59046666666666,121.17441463470459L216.663,119.34656267166137L216.82940000000002,123.24070310592651L217.9302,122.97487678527833L218.76646666666667,124.06255025863648L218.9542,119.72028465270996L219.10353333333333,119.80637965202331L219.23153333333335,118.88048601150513L219.33393333333333,127.97805635929107L219.47046666666665,117.17890133857728L219.77766666666665,120.78218946456909L219.89286666666666,116.14857077598572L219.90993333333333,119.42270584106446L219.97393333333332,123.7923867225647L220.08486666666667,117.42046556472778L220.17873333333335,125.09207873344421L220.90833333333333,122.74289093017578L220.9254,126.85290756225587L220.98086666666669,112.6674376487732L221.3222,116.57489528656006L221.33926666666667,121.60373954772949L221.49286666666666,117.76493892669677L221.86406666666667,110.66315183639527L221.89393333333334,120.56319403648376L222.08166666666668,120.8120831489563L222.3078,119.00593423843384L222.4742,122.85934643745422L222.73446666666666,126.5212527513504L223.1483333333333,115.45130186080932L223.31046666666666,118.36411972045899L223.50673333333333,122.51230554580688L223.511,116.63395271301269L223.76273333333333,120.98530015945434L224.11826666666667,115.33646326065063L224.22066666666666,122.86777896881104L224.42973333333336,125.42662785053253L224.48946666666666,122.4309636592865L225.12093333333334,116.38196983337403L225.24893333333335,132.0201395511627L225.5006666666667,131.63397459983827L225.71826666666666,118.86474132537842L226.5972,123.6273009300232L226.6356,115.44454565048218L226.86173333333332,115.41947298049926L227.43773333333334,123.58487091064453L227.59133333333332,125.06640768051147L228.0308,112.1409752368927L228.082,108.1365668296814L228.56413333333333,117.3538031578064L228.85426666666666,126.68800001144409L229.0036,117.79042749404907L229.6436,115.92254328727722L229.682,122.73414435386658L229.7972,116.94764966964722L229.9252,118.83901934623718L230.07026666666667,117.76380157470703L230.26226666666668,113.95891780853272L230.2964,122.36693668365479L230.41586666666666,113.18619747161866L230.898,121.16916074752808L230.96626666666666,125.43208332061768L231.2308,121.44949254989623L231.30333333333334,116.19645414352416L231.6702666666667,122.04755721092224L231.70866666666666,117.14526882171631L232.5108,115.1032551765442L232.72979999999998,115.39852533340454L233.95860000000002,128.5240871667862L234.04819999999998,117.63600225448609L234.6498,116.39936962127686L234.83326666666665,120.72096767425538L235.0594,124.02148675918579L235.08926666666667,114.40584197044373L235.1746,115.85827865600587L235.28553333333332,121.56106338500976L235.66953333333333,120.32176985740662L235.8914,121.89751586914062L236.1474,114.26086778640747L236.17726666666667,124.81807026863098L236.301,122.62748365402221L236.52713333333332,122.8786304950714L236.54420000000002,123.42450428009033L236.59966666666665,108.94236798286438L236.6594,126.56796269416809L236.7618,121.97048463821412L236.813,111.14484586715697L236.94953333333333,118.25882978439331L236.9794,120.51284074783325L237.03913333333335,117.18062009811402L237.52126666666666,123.90825233459472L237.5682,126.84855337142945L237.59380000000002,118.9957914352417L237.76873333333333,124.05147380828858L237.7858,131.92026901245117L237.84553333333335,118.98092947006225L237.94366666666667,132.2253382205963L238.39593333333335,108.3720241546631L238.5794,129.52380471229554L238.84393333333335,124.29735403060913L238.9122,131.58623340129853L239.04020000000003,114.41190643310547L239.86793333333333,111.34808387756347L240.05993333333333,125.53203873634338L240.26473333333334,122.20161323547363L240.29886666666667,122.48972401618957L240.75966666666665,122.68665142059326L240.845,114.36045398712159L241.66986666666665,118.38690495491028L242.25866666666664,120.29185495376586L243.496,125.60219383239746L243.7264,126.32348294258118L243.83306666666667,121.40986771583557L244.37066666666666,119.91550178527832L244.71626666666668,124.19493293762207L244.97653333333332,114.25720109939576L245.05759999999998,125.60226173400879L245.3093333333333,120.14775500297546L245.80426666666668,130.3880054950714L246.14133333333334,127.27515797615051L246.6277333333333,130.6665145635605L246.84106666666665,112.07927389144898L246.99893333333335,118.81497793197632L247.23786666666666,125.8337828874588L247.30613333333332,124.45661301612854L247.43413333333334,122.05536165237427L247.74560000000002,118.77381258010864L248.232,120.8578785419464L248.60746666666665,121.10300760269165L248.89759999999998,112.0720848083496L249.28586666666666,121.61454439163208L249.2944,124.63240604400634L249.32,117.1897783279419L250.09366666666665,128.7450071811676L250.77633333333333,121.07258343696594L250.9299333333333,122.67826132774353L251.4206,122.88542490005493L251.43766666666667,120.53605461120605L251.83446666666669,124.35910630226135L252.06913333333333,117.02337694168091L252.32513333333333,124.06386585235596L252.73046666666664,120.20558595657349L253.6008666666667,117.45945806503296L254.06593333333336,116.46089696884155L254.25366666666667,128.1576370239258L254.27073333333334,136.33164784908294L254.30486666666667,128.35160858631133L254.93633333333335,118.90689973831176L255.13686666666666,112.23062658309937L255.4184666666667,122.00562372207642L255.427,118.691006565094L256.1438,117.7725354194641L256.37846666666667,107.60508394241333L256.4979333333333,114.80370721817016L256.63873333333333,114.08255815505981L256.7411333333333,121.07247734069824L256.7838,117.07609829902648L257.3086,118.13214235305786L257.3854,117.60666027069092L257.7054,114.18220801353455L257.8675333333333,125.2237887620926L258.04246666666666,121.14957962036132L258.47339999999997,118.47169284820556L258.55446666666666,117.96206579208373L258.99533333333335,123.04957704544067L259.1361333333333,117.11790447235107L259.4092,120.85972461700439L259.45186666666666,126.68971028327942L259.7889333333333,111.37421751022339L259.85293333333334,121.1695426940918L260.01079999999996,124.63425636291504L261.1073333333333,117.01725306510926L261.14146666666664,114.10849657058716L261.3932,127.99533944129944L261.45293333333336,127.21049017906189L262.1612,125.04221348762512L262.40866666666665,114.80026969909667L262.43853333333334,129.45759003162385L262.4556,110.0407826423645L262.47266666666667,115.7347613811493L262.9121333333333,122.71302270889282L263.0742666666667,111.60935654640197L263.2150666666667,113.21269607543945L263.262,123.65248394012451L263.7612,114.47714290618896L263.97026666666665,113.0362961769104L264.03426666666667,116.08563022613525L264.1238666666667,125.98408522605897L264.18786666666665,113.6879903793335L264.4438666666667,129.07787573337555L264.6913333333333,122.78838076591492L265.2332,107.1901032447815L265.65133333333335,125.98842244148254L266.1761333333333,122.51605710983276L266.3297333333333,124.15187482833862L266.4236,119.72569980621338L266.61133333333333,120.42013382911682L266.7308,118.75765199661255L267.10626666666667,128.3159496307373L267.34233333333333,121.14883270263672L267.6580666666667,114.03139853477478L267.8500666666667,122.08108787536621L268.75033333333334,113.63641061782836L269.2026,106.9321195602417L269.2154,122.3737268447876L269.3263333333333,120.20825958251953L269.4586,121.9186460018158L270.2223333333333,130.05774266719817L270.2436666666667,126.56473100185394L270.2778,127.77974121570587L270.969,114.02633562088013L271.19513333333333,126.86067380905152L271.3188666666667,118.92920966148377L271.6388666666667,115.85598697662354L272.03566666666666,129.4797959804535L272.0484666666667,123.03909049034118L272.5818,123.05326919555664L273.49060000000003,99.83514924049378L273.6314,125.03815212249756L273.8106,116.89737277030945L273.94713333333334,122.74733848571778L274.0367333333333,116.82681875228882L274.3055333333333,110.74920015335083L274.35673333333335,126.21567003726959L274.4164666666667,118.14649505615235L274.4463333333333,129.28232111930848L274.78766666666667,111.71482048034669L275.5514,122.41793079376221L275.6922,126.64806325435639L275.8458,122.2699052810669L276.45306666666664,124.5136206626892L276.6109333333333,117.20706777572632L277.4685333333333,121.3612331867218L277.5709333333333,117.27667541503907L277.7330666666667,119.7444151878357L277.75866666666667,120.10250706672669L277.8525333333333,127.59311151504517L278.15546666666665,124.13596887588501L278.4584,105.97456254959106L278.5224,127.57567777633668L278.66746666666666,120.5745038986206L278.91066666666666,123.20890817642211L279.3842666666667,127.65462613105774L279.7,118.96290159225464L280.1693333333333,133.49376153945923L281.108,120.11326098442078L281.98266666666666,120.9707013130188L282.20026666666666,124.14095115661621L282.60133333333334,132.51595287323L283.0962666666667,119.52000885009765L283.33093333333335,127.54083576202393L283.45893333333333,122.12653951644897L283.476,117.22382249832154L283.6552,127.62438445091247L283.7917333333333,123.61270208358765L283.9069333333333,126.696852684021L283.97946666666667,115.26828155517578L284.04346666666663,122.61835088729859L284.08613333333335,119.97222509384156L284.4445333333333,118.93632659912109L285.0475333333333,120.59971237182617L285.1158,120.4665997505188L285.1286,123.73108005523682L285.1414,131.2929260253906L285.2352666666667,119.10143361091613L285.72593333333333,121.78509626388549L286.1142,117.87659888267517L286.3147333333333,116.01732969284058L286.831,116.36695508956909L287.4454,122.49269471168517L287.6502,118.45363101959228L287.71846666666664,117.28225183486938L287.84646666666663,121.6844575881958L288.05553333333336,119.49651489257812L288.13233333333335,123.95214223861694L288.1920666666667,126.00010364055633L288.47793333333334,125.15972995758057L288.66566666666665,128.6905649423599L288.78086666666667,124.90148315429687L289.2886,128.0912462234497L289.6214,120.96946210861206L290.01820000000004,111.82394685745238L290.0438,131.60523524284363L290.1376666666667,114.65092859268188L290.52166666666665,126.28603732585907L290.9526,128.54949085712434L291.2086,117.614710855484L291.28113333333334,120.22419099807739L291.32806666666664,119.89287781715393L291.4006,116.74579091072083L291.7974,117.75006847381592L291.9766,118.08594379425048L292.11740000000003,119.3420132637024L292.3179333333334,127.65413172245026L292.3947333333333,122.90449676513671L292.9707333333333,118.60819206237792L293.2153333333333,109.52130136489869" style="fill: none;" fill="none"></path></g></g></g></g></g></g><g transform="translate(30, 178)" clip-path="url(#clip_1)"><clipPath id="clip_1"><rect width="300" height="22"></rect></clipPath><g><g><line x1="0" y1="0" x2="0" y2="5" style="visibility: inherit;" fill="rgb(0, 0, 0)" stroke="rgb(204, 204, 204)" stroke-width="1px"></line><line x1="33.33333333333333" y1="0" x2="33.33333333333333" y2="5" style="visibility: inherit;" fill="rgb(0, 0, 0)" stroke="rgb(204, 204, 204)" stroke-width="1px"></line><line x1="66.66666666666666" y1="0" x2="66.66666666666666" y2="5" style="visibility: inherit;" fill="rgb(0, 0, 0)" stroke="rgb(204, 204, 204)" stroke-width="1px"></line><line x1="100" y1="0" x2="100" y2="5" style="visibility: inherit;" fill="rgb(0, 0, 0)" stroke="rgb(204, 204, 204)" stroke-width="1px"></line><line x1="133.33333333333331" y1="0" x2="133.33333333333331" y2="5" style="visibility: inherit;" fill="rgb(0, 0, 0)" stroke="rgb(204, 204, 204)" stroke-width="1px"></line><line x1="166.66666666666669" y1="0" x2="166.66666666666669" y2="5" style="visibility: inherit;" fill="rgb(0, 0, 0)" stroke="rgb(204, 204, 204)" stroke-width="1px"></line><line x1="200" y1="0" x2="200" y2="5" style="visibility: inherit;" fill="rgb(0, 0, 0)" stroke="rgb(204, 204, 204)" stroke-width="1px"></line><line x1="233.33333333333334" y1="0" x2="233.33333333333334" y2="5" style="visibility: inherit;" fill="rgb(0, 0, 0)" stroke="rgb(204, 204, 204)" stroke-width="1px"></line><line x1="266.66666666666663" y1="0" x2="266.66666666666663" y2="5" style="visibility: inherit;" fill="rgb(0, 0, 0)" stroke="rgb(204, 204, 204)" stroke-width="1px"></line><line x1="300" y1="0" x2="300" y2="5" style="visibility: inherit;" fill="rgb(0, 0, 0)" stroke="rgb(204, 204, 204)" stroke-width="1px"></line></g><g transform="translate(0, 8)"><text x="0" y="0" dx="0em" dy="0.95em" style="text-anchor: middle; visibility: hidden; font-family: &quot;Helvetica Neue&quot;, sans-serif; font-size: 12px; font-weight: 200;" fill="rgb(50, 49, 63)" stroke="none" stroke-width="1px">-500k</text><text x="33.33333333333333" y="0" dx="0em" dy="0.95em" style="text-anchor: middle; visibility: inherit; font-family: &quot;Helvetica Neue&quot;, sans-serif; font-size: 12px; font-weight: 200;" fill="rgb(50, 49, 63)" stroke="none" stroke-width="1px">0</text><text x="66.66666666666666" y="0" dx="0em" dy="0.95em" style="text-anchor: middle; visibility: inherit; font-family: &quot;Helvetica Neue&quot;, sans-serif; font-size: 12px; font-weight: 200;" fill="rgb(50, 49, 63)" stroke="none" stroke-width="1px">500k</text><text x="100" y="0" dx="0em" dy="0.95em" style="text-anchor: middle; visibility: inherit; font-family: &quot;Helvetica Neue&quot;, sans-serif; font-size: 12px; font-weight: 200;" fill="rgb(50, 49, 63)" stroke="none" stroke-width="1px">1M</text><text x="133.33333333333331" y="0" dx="0em" dy="0.95em" style="text-anchor: middle; visibility: inherit; font-family: &quot;Helvetica Neue&quot;, sans-serif; font-size: 12px; font-weight: 200;" fill="rgb(50, 49, 63)" stroke="none" stroke-width="1px">1.5M</text><text x="166.66666666666669" y="0" dx="0em" dy="0.95em" style="text-anchor: middle; visibility: inherit; font-family: &quot;Helvetica Neue&quot;, sans-serif; font-size: 12px; font-weight: 200;" fill="rgb(50, 49, 63)" stroke="none" stroke-width="1px">2M</text><text x="200" y="0" dx="0em" dy="0.95em" style="text-anchor: middle; visibility: inherit; font-family: &quot;Helvetica Neue&quot;, sans-serif; font-size: 12px; font-weight: 200;" fill="rgb(50, 49, 63)" stroke="none" stroke-width="1px">2.5M</text><text x="233.33333333333334" y="0" dx="0em" dy="0.95em" style="text-anchor: middle; visibility: inherit; font-family: &quot;Helvetica Neue&quot;, sans-serif; font-size: 12px; font-weight: 200;" fill="rgb(50, 49, 63)" stroke="none" stroke-width="1px">3M</text><text x="266.66666666666663" y="0" dx="0em" dy="0.95em" style="text-anchor: middle; visibility: inherit; font-family: &quot;Helvetica Neue&quot;, sans-serif; font-size: 12px; font-weight: 200;" fill="rgb(50, 49, 63)" stroke="none" stroke-width="1px">3.5M</text><text x="300" y="0" dx="0em" dy="0.95em" style="text-anchor: middle; visibility: hidden; font-family: &quot;Helvetica Neue&quot;, sans-serif; font-size: 12px; font-weight: 200;" fill="rgb(50, 49, 63)" stroke="none" stroke-width="1px">4M</text></g><line x1="0" y1="0" x2="300" y2="0" fill="rgb(0, 0, 0)" stroke="rgb(204, 204, 204)" stroke-width="1px"></line></g></g></g></g></svg>